<svg xmlns="http://www.w3.org/2000/svg" xmlns:xlink="http://www.w3.org/1999/xlink" contentStyleType="text/css" data-diagram-type="DESCRIPTION" height="1545px" preserveAspectRatio="none" style="width:2234px;height:1545px;background:#FFFFFF;" version="1.1" viewBox="0 0 2234 1545" width="2234px" zoomAndPan="magnify"><?plantuml 1.2026.6?><defs/><g><g class="title" data-source-line="1"><text fill="#000000" font-family="sans-serif" font-size="14" font-weight="700" lengthAdjust="spacing" textLength="285.3936" x="971.0171" y="22.9951">truST OpenOT database persistence</text></g><!--cluster PLC scan thread--><g class="cluster" data-qualified-name="PLC scan thread" data-source-line="4" id="ent0001"><path d="M805.01,43.2969 L933.7873,43.2969 A3.75,3.75 0 0 1 936.2873,45.7969 L943.2873,65.5938 L1090.01,65.5938 A2.5,2.5 0 0 1 1092.51,68.0938 L1092.51,476.9869 A2.5,2.5 0 0 1 1090.01,479.4869 L805.01,479.4869 A2.5,2.5 0 0 1 802.51,476.9869 L802.51,45.7969 A2.5,2.5 0 0 1 805.01,43.2969" fill="none" style="stroke:#000000;stroke-width:1.5;"/><line style="stroke:#000000;stroke-width:1.5;" x1="802.51" x2="943.2873" y1="65.5938" y2="65.5938"/><text fill="#000000" font-family="sans-serif" font-size="14" font-weight="700" lengthAdjust="spacing" textLength="127.7773" x="806.51" y="58.292">PLC scan thread</text></g><!--cluster Host persistence thread--><g class="cluster" data-qualified-name="Host persistence thread" data-source-line="14" id="ent0009"><path d="M209.01,528.4869 L400.4797,528.4869 A3.75,3.75 0 0 1 402.9797,530.9869 L409.9797,550.7838 L908.01,550.7838 A2.5,2.5 0 0 1 910.51,553.2838 L910.51,1387.3369 A2.5,2.5 0 0 1 908.01,1389.8369 L209.01,1389.8369 A2.5,2.5 0 0 1 206.51,1387.3369 L206.51,530.9869 A2.5,2.5 0 0 1 209.01,528.4869" fill="none" style="stroke:#000000;stroke-width:1.5;"/><line style="stroke:#000000;stroke-width:1.5;" x1="206.51" x2="409.9797" y1="550.7838" y2="550.7838"/><text fill="#000000" font-family="sans-serif" font-size="14" font-weight="700" lengthAdjust="spacing" textLength="190.4697" x="210.51" y="543.482">Host persistence thread</text></g><!--entity st--><g class="entity" data-qualified-name="PLC scan thread.st" data-source-line="5" id="ent0002"><rect fill="#F1F1F1" height="36.2969" rx="2.5" ry="2.5" style="stroke:#181818;stroke-width:0.5;" width="184.6504" x="818.18" y="78.2969"/><text fill="#000000" font-family="sans-serif" font-size="14" lengthAdjust="spacing" textLength="164.6504" x="828.18" y="101.292">Attributed ST programs</text></g><!--entity producers--><g class="entity" data-qualified-name="PLC scan thread.producers" data-source-line="6" id="ent0003"><rect fill="#F1F1F1" height="36.2969" rx="2.5" ry="2.5" style="stroke:#181818;stroke-width:0.5;" width="257.4395" x="818.79" y="191.5969"/><text fill="#000000" font-family="sans-serif" font-size="14" lengthAdjust="spacing" textLength="237.4395" x="828.79" y="214.592">Generated OotProducer instances</text></g><!--entity publisher--><g class="entity" data-qualified-name="PLC scan thread.publisher" data-source-line="7" id="ent0004"><rect fill="#F1F1F1" height="36.2969" rx="2.5" ry="2.5" style="stroke:#181818;stroke-width:0.5;" width="219.1787" x="820.92" y="304.8969"/><text fill="#000000" font-family="sans-serif" font-size="14" lengthAdjust="spacing" textLength="199.1787" x="830.92" y="327.892">Serialized OpenOT publisher</text></g><!--entity ring--><g class="entity" data-qualified-name="PLC scan thread.ring" data-source-line="8" id="ent0005"><path d="M818.43,428.1869 C818.43,418.1869 933.5086,418.1869 933.5086,418.1869 C933.5086,418.1869 1048.5872,418.1869 1048.5872,428.1869 L1048.5872,453.4838 C1048.5872,463.4838 933.5086,463.4838 933.5086,463.4838 C933.5086,463.4838 818.43,463.4838 818.43,453.4838 L818.43,428.1869" fill="#F1F1F1" style="stroke:#181818;stroke-width:0.5;"/><path d="M818.43,428.1869 C818.43,438.1869 933.5086,438.1869 933.5086,438.1869 C933.5086,438.1869 1048.5872,438.1869 1048.5872,428.1869" fill="none" style="stroke:#181818;stroke-width:0.5;"/><text fill="#000000" font-family="sans-serif" font-size="14" lengthAdjust="spacing" textLength="210.1572" x="828.43" y="455.182">Bounded shared-memory ring</text></g><!--entity source--><g class="entity" data-qualified-name="Host persistence thread.source" data-source-line="15" id="ent0010"><rect fill="#F1F1F1" height="36.2969" rx="2.5" ry="2.5" style="stroke:#181818;stroke-width:0.5;" width="228.8242" x="442.1" y="563.4869"/><text fill="#000000" font-family="sans-serif" font-size="14" lengthAdjust="spacing" textLength="208.8242" x="452.1" y="586.482">SharedMemoryOpenOtSource</text></g><!--entity loss--><g class="entity" data-qualified-name="Host persistence thread.loss" data-source-line="16" id="ent0011"><rect fill="#F1F1F1" height="36.2969" rx="2.5" ry="2.5" style="stroke:#181818;stroke-width:0.5;" width="200.7627" x="340.13" y="680.2669"/><text fill="#000000" font-family="sans-serif" font-size="14" lengthAdjust="spacing" textLength="180.7627" x="350.13" y="703.262">LossAccountingConsumer</text></g><!--entity resolver--><g class="entity" data-qualified-name="Host persistence thread.resolver" data-source-line="17" id="ent0012"><rect fill="#F1F1F1" height="52.5938" rx="2.5" ry="2.5" style="stroke:#181818;stroke-width:0.5;" width="182.5518" x="291.23" y="795.0669"/><text fill="#000000" font-family="sans-serif" font-size="14" lengthAdjust="spacing" textLength="129.0146" x="301.23" y="818.062">Definition resolver</text><text fill="#000000" font-family="sans-serif" font-size="14" lengthAdjust="spacing" textLength="162.5518" x="301.23" y="834.3589">(current + prior epoch)</text></g><!--entity worker--><g class="entity" data-qualified-name="Host persistence thread.worker" data-source-line="18" id="ent0013"><rect fill="#F1F1F1" height="36.2969" rx="2.5" ry="2.5" style="stroke:#181818;stroke-width:0.5;" width="205.1172" x="279.95" y="924.6569"/><text fill="#000000" font-family="sans-serif" font-size="14" lengthAdjust="spacing" textLength="185.1172" x="289.95" y="947.652">OpenOtPersistenceWorker</text></g><!--entity projector--><g class="entity" data-qualified-name="Host persistence thread.projector" data-source-line="19" id="ent0014"><rect fill="#F1F1F1" height="52.5938" rx="2.5" ry="2.5" style="stroke:#181818;stroke-width:0.5;" width="221.7764" x="399.62" y="1321.2469"/><text fill="#000000" font-family="sans-serif" font-size="14" lengthAdjust="spacing" textLength="118.5625" x="409.62" y="1344.242">LoggingProjector</text><text fill="#000000" font-family="sans-serif" font-size="14" lengthAdjust="spacing" textLength="201.7764" x="409.62" y="1360.5389">(definition-bound semantics)</text></g><!--entity factory--><g class="entity" data-qualified-name="Host persistence thread.factory" data-source-line="20" id="ent0015"><rect fill="#F1F1F1" height="52.5938" rx="2.5" ry="2.5" style="stroke:#181818;stroke-width:0.5;" width="229.9385" x="664.54" y="1167.5469"/><text fill="#000000" font-family="sans-serif" font-size="14" lengthAdjust="spacing" textLength="209.9385" x="674.54" y="1190.542">OpenOtDocumentSink factory</text><text fill="#000000" font-family="sans-serif" font-size="14" lengthAdjust="spacing" textLength="198.126" x="674.54" y="1206.8389">(open / migrate / reconnect)</text></g><!--entity status--><g class="entity" data-qualified-name="Host persistence thread.status" data-source-line="21" id="ent0016"><rect fill="#F1F1F1" height="52.5938" rx="2.5" ry="2.5" style="stroke:#181818;stroke-width:0.5;" width="273.791" x="620.61" y="1037.9569"/><text fill="#000000" font-family="sans-serif" font-size="14" lengthAdjust="spacing" textLength="212.4336" x="630.61" y="1060.952">Supervision + redacted status</text><text fill="#000000" font-family="sans-serif" font-size="14" lengthAdjust="spacing" textLength="253.791" x="630.61" y="1077.2489">(schema only after successful open)</text></g><!--entity definition--><g class="entity" data-qualified-name="definition" data-source-line="33" id="ent0026"><rect fill="#F1F1F1" height="39.2969" rx="2.5" ry="2.5" style="stroke:#181818;stroke-width:0.5;" width="183.0156" x="7" y="678.7669"/><polygon fill="#F1F1F1" points="173.0156,683.7669,173.0156,697.7669,185.0156,697.7669,185.0156,689.7669,179.0156,683.7669,173.0156,683.7669" style="stroke:#181818;stroke-width:0.5;stroke-linejoin:miter;stroke-miterlimit:10;"/><line style="stroke:#181818;stroke-width:0.5;" x1="179.0156" x2="179.0156" y1="683.7669" y2="689.7669"/><line style="stroke:#181818;stroke-width:0.5;" x1="185.0156" x2="179.0156" y1="689.7669" y2="689.7669"/><text fill="#000000" font-family="sans-serif" font-size="14" lengthAdjust="spacing" textLength="153.0156" x="17" y="704.762">openot-definition.json</text></g><!--entity toml--><g class="entity" data-qualified-name="toml" data-source-line="34" id="ent0027"><rect fill="#F1F1F1" height="52.5938" rx="2.5" ry="2.5" style="stroke:#181818;stroke-width:0.5;" width="176.2969" x="929.36" y="1037.9569"/><text fill="#000000" font-family="sans-serif" font-size="14" lengthAdjust="spacing" textLength="91.1641" x="939.36" y="1060.952">runtime.toml</text><text fill="#000000" font-family="sans-serif" font-size="14" lengthAdjust="spacing" textLength="156.2969" x="939.36" y="1077.2489">backend discriminator</text></g><!--entity sqlite--><g class="entity" data-qualified-name="sqlite" data-source-line="38" id="ent0030"><path d="M926.66,1334.8969 C926.66,1324.8969 959.5091,1324.8969 959.5091,1324.8969 C959.5091,1324.8969 992.3582,1324.8969 992.3582,1334.8969 L992.3582,1360.1938 C992.3582,1370.1938 959.5091,1370.1938 959.5091,1370.1938 C959.5091,1370.1938 926.66,1370.1938 926.66,1360.1938 L926.66,1334.8969" fill="#F1F1F1" style="stroke:#181818;stroke-width:0.5;"/><path d="M926.66,1334.8969 C926.66,1344.8969 959.5091,1344.8969 959.5091,1344.8969 C959.5091,1344.8969 992.3582,1344.8969 992.3582,1334.8969" fill="none" style="stroke:#181818;stroke-width:0.5;"/><text fill="#000000" font-family="sans-serif" font-size="14" lengthAdjust="spacing" textLength="45.6982" x="936.66" y="1361.892">SQLite</text></g><!--entity postgres--><g class="entity" data-qualified-name="postgres" data-source-line="39" id="ent0031"><path d="M1027.13,1334.8969 C1027.13,1324.8969 1077.5065,1324.8969 1077.5065,1324.8969 C1077.5065,1324.8969 1127.8829,1324.8969 1127.8829,1334.8969 L1127.8829,1360.1938 C1127.8829,1370.1938 1077.5065,1370.1938 1077.5065,1370.1938 C1077.5065,1370.1938 1027.13,1370.1938 1027.13,1360.1938 L1027.13,1334.8969" fill="#F1F1F1" style="stroke:#181818;stroke-width:0.5;"/><path d="M1027.13,1334.8969 C1027.13,1344.8969 1077.5065,1344.8969 1077.5065,1344.8969 C1077.5065,1344.8969 1127.8829,1344.8969 1127.8829,1334.8969" fill="none" style="stroke:#181818;stroke-width:0.5;"/><text fill="#000000" font-family="sans-serif" font-size="14" lengthAdjust="spacing" textLength="80.7529" x="1037.13" y="1361.892">PostgreSQL</text></g><!--entity timescale--><g class="entity" data-qualified-name="timescale" data-source-line="40" id="ent0032"><path d="M1162.93,1334.8969 C1162.93,1324.8969 1218.5052,1324.8969 1218.5052,1324.8969 C1218.5052,1324.8969 1274.0804,1324.8969 1274.0804,1334.8969 L1274.0804,1360.1938 C1274.0804,1370.1938 1218.5052,1370.1938 1218.5052,1370.1938 C1218.5052,1370.1938 1162.93,1370.1938 1162.93,1360.1938 L1162.93,1334.8969" fill="#F1F1F1" style="stroke:#181818;stroke-width:0.5;"/><path d="M1162.93,1334.8969 C1162.93,1344.8969 1218.5052,1344.8969 1218.5052,1344.8969 C1218.5052,1344.8969 1274.0804,1344.8969 1274.0804,1334.8969" fill="none" style="stroke:#181818;stroke-width:0.5;"/><text fill="#000000" font-family="sans-serif" font-size="14" lengthAdjust="spacing" textLength="91.1504" x="1172.93" y="1361.892">TimescaleDB</text></g><!--entity mysql--><g class="entity" data-qualified-name="mysql" data-source-line="41" id="ent0033"><path d="M1309.03,1334.8969 C1309.03,1324.8969 1379.5075,1324.8969 1379.5075,1324.8969 C1379.5075,1324.8969 1449.9851,1324.8969 1449.9851,1334.8969 L1449.9851,1360.1938 C1449.9851,1370.1938 1379.5075,1370.1938 1379.5075,1370.1938 C1379.5075,1370.1938 1309.03,1370.1938 1309.03,1360.1938 L1309.03,1334.8969" fill="#F1F1F1" style="stroke:#181818;stroke-width:0.5;"/><path d="M1309.03,1334.8969 C1309.03,1344.8969 1379.5075,1344.8969 1379.5075,1344.8969 C1379.5075,1344.8969 1449.9851,1344.8969 1449.9851,1334.8969" fill="none" style="stroke:#181818;stroke-width:0.5;"/><text fill="#000000" font-family="sans-serif" font-size="14" lengthAdjust="spacing" textLength="120.9551" x="1319.03" y="1361.892">MySQL / MariaDB</text></g><!--entity sqlserver--><g class="entity" data-qualified-name="sqlserver" data-source-line="42" id="ent0034"><path d="M1485.47,1334.8969 C1485.47,1324.8969 1534.5032,1324.8969 1534.5032,1324.8969 C1534.5032,1324.8969 1583.5364,1324.8969 1583.5364,1334.8969 L1583.5364,1360.1938 C1583.5364,1370.1938 1534.5032,1370.1938 1534.5032,1370.1938 C1534.5032,1370.1938 1485.47,1370.1938 1485.47,1360.1938 L1485.47,1334.8969" fill="#F1F1F1" style="stroke:#181818;stroke-width:0.5;"/><path d="M1485.47,1334.8969 C1485.47,1344.8969 1534.5032,1344.8969 1534.5032,1344.8969 C1534.5032,1344.8969 1583.5364,1344.8969 1583.5364,1334.8969" fill="none" style="stroke:#181818;stroke-width:0.5;"/><text fill="#000000" font-family="sans-serif" font-size="14" lengthAdjust="spacing" textLength="78.0664" x="1495.47" y="1361.892">SQL Server</text></g><!--entity influx--><g class="entity" data-qualified-name="influx" data-source-line="43" id="ent0035"><path d="M1656.15,1484.9369 C1656.15,1474.9369 1702.5104,1474.9369 1702.5104,1474.9369 C1702.5104,1474.9369 1748.8707,1474.9369 1748.8707,1484.9369 L1748.8707,1510.2338 C1748.8707,1520.2338 1702.5104,1520.2338 1702.5104,1520.2338 C1702.5104,1520.2338 1656.15,1520.2338 1656.15,1510.2338 L1656.15,1484.9369" fill="#F1F1F1" style="stroke:#181818;stroke-width:0.5;"/><path d="M1656.15,1484.9369 C1656.15,1494.9369 1702.5104,1494.9369 1702.5104,1494.9369 C1702.5104,1494.9369 1748.8707,1494.9369 1748.8707,1484.9369" fill="none" style="stroke:#181818;stroke-width:0.5;"/><text fill="#000000" font-family="sans-serif" font-size="14" lengthAdjust="spacing" textLength="72.7207" x="1666.15" y="1511.932">InfluxDB 3</text></g><!--entity spool--><g class="entity" data-qualified-name="spool" data-source-line="44" id="ent0036"><path d="M1618.92,1334.8969 C1618.92,1324.8969 1702.5089,1324.8969 1702.5089,1324.8969 C1702.5089,1324.8969 1786.0977,1324.8969 1786.0977,1334.8969 L1786.0977,1360.1938 C1786.0977,1370.1938 1702.5089,1370.1938 1702.5089,1370.1938 C1702.5089,1370.1938 1618.92,1370.1938 1618.92,1360.1938 L1618.92,1334.8969" fill="#F1F1F1" style="stroke:#181818;stroke-width:0.5;"/><path d="M1618.92,1334.8969 C1618.92,1344.8969 1702.5089,1344.8969 1702.5089,1344.8969 C1702.5089,1344.8969 1786.0977,1344.8969 1786.0977,1334.8969" fill="none" style="stroke:#181818;stroke-width:0.5;"/><text fill="#000000" font-family="sans-serif" font-size="14" lengthAdjust="spacing" textLength="147.1777" x="1628.92" y="1361.892">Durable SQLite spool</text></g><g class="entity" data-qualified-name="GMN44" data-source-line="55" id="ent0045"><path d="M926.18,561.5069 L926.18,601.7725 A0,0 0 0 0 926.18,601.7725 L1272.8402,601.7725 A0,0 0 0 0 1272.8402,601.7725 L1272.8402,571.5069 L1262.8402,561.5069 L1080.27,561.5069 L959.81,463.8269 L1072.27,561.5069 L926.18,561.5069 A0,0 0 0 0 926.18,561.5069" fill="#FEFFDD" style="stroke:#181818;stroke-width:0.5;"/><path d="M1262.8402,561.5069 L1262.8402,571.5069 L1272.8402,571.5069 L1262.8402,561.5069" fill="#FEFFDD" style="stroke:#181818;stroke-width:0.5;"/><text fill="#000000" font-family="sans-serif" font-size="13" lengthAdjust="spacing" textLength="256.3438" x="932.18" y="578.5738">Database work is outside the PLC scan.</text><text fill="#000000" font-family="sans-serif" font-size="13" lengthAdjust="spacing" textLength="325.6602" x="932.18" y="593.7066">Ring overflow remains explicit as loss documents.</text></g><g class="entity" data-qualified-name="GMN47" data-source-line="60" id="ent0048"><path d="M1821.58,1297.1469 L1821.58,1397.9438 L2219.4277,1397.9438 L2219.4277,1307.1469 L2209.4277,1297.1469 L1821.58,1297.1469" fill="#FEFFDD" style="stroke:#181818;stroke-width:0.5;"/><path d="M2209.4277,1297.1469 L2209.4277,1307.1469 L2219.4277,1307.1469 L2209.4277,1297.1469" fill="#FEFFDD" style="stroke:#181818;stroke-width:1;"/><text fill="#000000" font-family="sans-serif" font-size="13" lengthAdjust="spacing" textLength="339.3647" x="1827.58" y="1314.2138">Relational adapters commit internal canonical rows,</text><text fill="#000000" font-family="sans-serif" font-size="13" lengthAdjust="spacing" textLength="346.9375" x="1827.58" y="1329.3466">descriptive public read-model rows, and the absolute</text><text fill="#000000" font-family="sans-serif" font-size="13" lengthAdjust="spacing" textLength="324.4287" x="1827.58" y="1344.4794">ring cursor in one transaction. Influx uses durable</text><text fill="#000000" font-family="sans-serif" font-size="13" lengthAdjust="spacing" textLength="369.897" x="1827.58" y="1359.6122">per-part reconciliation before remote acknowledgement.</text><text fill="#000000" font-family="sans-serif" font-size="13" lengthAdjust="spacing" textLength="362.6987" x="1827.58" y="1374.745">Initial remote open, migration, and reconnect remain in</text><text fill="#000000" font-family="sans-serif" font-size="13" lengthAdjust="spacing" textLength="376.8477" x="1827.58" y="1389.8778">the supervised host worker and cannot block PLC startup.</text></g><!--link st to producers--><g class="link" data-entity-1="ent0002" data-entity-2="ent0003" data-link-type="dependency" data-source-line="9" id="lnk6"><path d="M916.29,114.8369 C923.2,135.6269 933.1216,165.4726 940.0716,186.3626" fill="none" id="st-to-producers" style="stroke:#181818;stroke-width:1;"/><polygon fill="#181818" points="941.65,191.1069,942.6043,181.3044,940.0716,186.3626,935.0134,183.8298,941.65,191.1069" style="stroke:#181818;stroke-width:1;stroke-linejoin:miter;stroke-miterlimit:10;"/><text fill="#000000" font-family="sans-serif" font-size="13" lengthAdjust="spacing" textLength="166.9497" x="932.22" y="157.6638">declaration-driven events</text></g><!--link producers to publisher--><g class="link" data-entity-1="ent0003" data-entity-2="ent0004" data-link-type="dependency" data-source-line="10" id="lnk7"><path d="M944.85,228.1369 C941.68,248.9169 937.1444,278.5641 933.9544,299.4641" fill="none" id="producers-to-publisher" style="stroke:#181818;stroke-width:1;"/><polygon fill="#181818" points="933.2,304.4069,938.5122,296.1134,933.9544,299.4641,930.6038,294.9064,933.2,304.4069" style="stroke:#181818;stroke-width:1;stroke-linejoin:miter;stroke-miterlimit:10;"/><text fill="#000000" font-family="sans-serif" font-size="13" lengthAdjust="spacing" textLength="182.1016" x="941.03" y="270.9638">encoded records per source</text></g><!--link publisher to ring--><g class="link" data-entity-1="ent0004" data-entity-2="ent0005" data-link-type="dependency" data-source-line="11" id="lnk8"><path d="M930.96,341.6269 C931.49,361.9969 932.2312,390.5985 932.8012,412.7185" fill="none" id="publisher-to-ring" style="stroke:#181818;stroke-width:1;"/><polygon fill="#181818" points="932.93,417.7169,936.6968,408.6168,932.8012,412.7185,928.6995,408.8229,932.93,417.7169" style="stroke:#181818;stroke-width:1;stroke-linejoin:miter;stroke-miterlimit:10;"/><text fill="#000000" font-family="sans-serif" font-size="13" lengthAdjust="spacing" textLength="128.9907" x="933.1" y="384.2538">single fenced writer</text></g><!--link ring to source--><g class="link" data-entity-1="ent0005" data-entity-2="ent0010" data-link-type="dependency" data-source-line="22" id="lnk17"><path d="M873.35,463.9869 C798.62,491.4969 677.3222,536.1596 608.8922,561.3496" fill="none" id="ring-to-source" style="stroke:#181818;stroke-width:1;"/><polygon fill="#181818" points="604.2,563.0769,614.0277,563.7216,608.8922,561.3496,611.2641,556.2141,604.2,563.0769" style="stroke:#181818;stroke-width:1;stroke-linejoin:miter;stroke-miterlimit:10;"/><text fill="#000000" font-family="sans-serif" font-size="13" lengthAdjust="spacing" textLength="98.3125" x="779.77" y="508.5538">concurrent poll</text></g><!--link source to loss--><g class="link" data-entity-1="ent0010" data-entity-2="ent0011" data-link-type="dependency" data-source-line="23" id="lnk18"><path d="M538.89,600.0669 C517.09,621.6369 483.7242,654.6501 461.8442,676.3001" fill="none" id="source-to-loss" style="stroke:#181818;stroke-width:1;"/><polygon fill="#181818" points="458.29,679.8169,467.5009,676.33,461.8442,676.3001,461.8741,670.6433,458.29,679.8169" style="stroke:#181818;stroke-width:1;stroke-linejoin:miter;stroke-miterlimit:10;"/><text fill="#000000" font-family="sans-serif" font-size="13" lengthAdjust="spacing" textLength="207.4795" x="506.45" y="644.8338">raw batches + control snapshot</text></g><!--link loss to resolver--><g class="link" data-entity-1="ent0011" data-entity-2="ent0012" data-link-type="dependency" data-source-line="24" id="lnk19"><path d="M432.07,717.0069 C422.27,737.4469 408.1725,766.8487 396.9625,790.2187" fill="none" id="loss-to-resolver" style="stroke:#181818;stroke-width:1;"/><polygon fill="#181818" points="394.8,794.7269,402.299,788.3421,396.9625,790.2187,395.0859,784.8822,394.8,794.7269" style="stroke:#181818;stroke-width:1;stroke-linejoin:miter;stroke-miterlimit:10;"/><text fill="#000000" font-family="sans-serif" font-size="13" lengthAdjust="spacing" textLength="192.9434" x="417.7" y="761.1338">records + explicit loss ranges</text></g><!--link resolver to worker--><g class="link" data-entity-1="ent0012" data-entity-2="ent0013" data-link-type="dependency" data-source-line="25" id="lnk20"><path d="M382.51,847.9869 C382.51,871.0169 382.51,899.2269 382.51,919.3369" fill="none" id="resolver-to-worker" style="stroke:#181818;stroke-width:1;"/><polygon fill="#181818" points="382.51,924.3369,386.51,915.3369,382.51,919.3369,378.51,915.3369,382.51,924.3369" style="stroke:#181818;stroke-width:1;stroke-linejoin:miter;stroke-miterlimit:10;"/><text fill="#000000" font-family="sans-serif" font-size="13" lengthAdjust="spacing" textLength="240.2969" x="383.51" y="890.7238">event / loss / placeholder documents</text></g><!--link status to factory--><g class="link" data-entity-1="ent0016" data-entity-2="ent0015" data-link-type="dependency" data-source-line="26" id="lnk21"><path d="M761.91,1090.7669 C765.74,1113.0169 770.4293,1140.2098 774.2693,1162.4498" fill="none" id="status-to-factory" style="stroke:#181818;stroke-width:1;"/><polygon fill="#181818" points="775.12,1167.3769,777.5304,1157.8275,774.2693,1162.4498,769.647,1159.1887,775.12,1167.3769" style="stroke:#181818;stroke-width:1;stroke-linejoin:miter;stroke-miterlimit:10;"/><text fill="#000000" font-family="sans-serif" font-size="13" lengthAdjust="spacing" textLength="198.0278" x="770.83" y="1133.6138">supervised initial open + retry</text></g><!--link worker to factory--><g class="link" data-entity-1="ent0013" data-entity-2="ent0015" data-link-type="dependency" data-source-line="27" id="lnk22"><path d="M353.16,961.4369 C310.13,989.4769 238.79,1045.6369 275.51,1090.5469 C323.64,1149.4369 525.956,1174.8575 659.246,1185.5375" fill="none" id="worker-to-factory" style="stroke:#181818;stroke-width:1;"/><polygon fill="#181818" points="664.23,1185.9369,655.5782,1181.2308,659.246,1185.5375,654.9393,1189.2053,664.23,1185.9369" style="stroke:#181818;stroke-width:1;stroke-linejoin:miter;stroke-miterlimit:10;"/><text fill="#000000" font-family="sans-serif" font-size="13" lengthAdjust="spacing" textLength="326.644" x="276.51" y="1068.8238">typed documents + atomic cursor + maintenance</text></g><!--link factory to projector--><g class="link" data-entity-1="ent0015" data-entity-2="ent0014" data-link-type="dependency" data-source-line="28" id="lnk23"><path d="M664.08,1196.2669 C568.34,1200.1769 442.85,1212.5969 410.51,1250.1469 C388.48,1275.7269 416.0841,1299.7198 449.5841,1318.4198" fill="none" id="factory-to-projector" style="stroke:#181818;stroke-width:1;"/><polygon fill="#181818" points="453.95,1320.8569,448.0411,1312.9775,449.5841,1318.4198,444.1418,1319.9629,453.95,1320.8569" style="stroke:#181818;stroke-width:1;stroke-linejoin:miter;stroke-miterlimit:10;"/><text fill="#000000" font-family="sans-serif" font-size="13" lengthAdjust="spacing" textLength="153.353" x="411.51" y="1263.2138">exact definition catalog</text></g><!--link projector to factory--><g class="link" data-entity-1="ent0014" data-entity-2="ent0015" data-link-type="dependency" data-source-line="29" id="lnk24"><path d="M530.53,1321.0469 C548.75,1299.4069 577.49,1268.9469 608.51,1250.1469 C628.52,1238.0169 646.7532,1229.8772 669.2232,1222.1272" fill="none" id="projector-to-factory" style="stroke:#181818;stroke-width:1;"/><polygon fill="#181818" points="673.95,1220.4969,664.1376,1219.65,669.2232,1222.1272,666.7461,1227.2128,673.95,1220.4969" style="stroke:#181818;stroke-width:1;stroke-linejoin:miter;stroke-miterlimit:10;"/><text fill="#000000" font-family="sans-serif" font-size="13" lengthAdjust="spacing" textLength="284.8892" x="609.51" y="1263.2138">canonical + envelope + typed domain rows</text></g><!--link worker to status--><g class="link" data-entity-1="ent0013" data-entity-2="ent0016" data-link-type="dependency" data-source-line="30" id="lnk25"><path d="M437.84,961.4269 C500.9,981.5169 599.7659,1013.0093 671.8759,1035.9793" fill="none" id="worker-to-status" style="stroke:#181818;stroke-width:1;"/><polygon fill="#181818" points="676.64,1037.4969,669.2786,1030.9539,671.8759,1035.9793,666.8505,1038.5766,676.64,1037.4969" style="stroke:#181818;stroke-width:1;stroke-linejoin:miter;stroke-miterlimit:10;"/><text fill="#000000" font-family="sans-serif" font-size="13" lengthAdjust="spacing" textLength="262.2217" x="582.25" y="1004.0238">lag, loss, projection, reconciliation, retry</text></g><!--link definition to resolver--><g class="link" data-entity-1="ent0026" data-entity-2="ent0012" data-link-type="dependency" data-source-line="35" id="lnk28"><path d="M135.9,718.4169 C163.22,732.0369 201.3,750.4669 235.51,765.0669 C259.58,775.3369 281.5835,783.9441 305.5435,792.8541" fill="none" id="definition-to-resolver" style="stroke:#181818;stroke-width:1;"/><polygon fill="#181818" points="310.23,794.5969,303.1886,787.7108,305.5435,792.8541,300.4002,795.2091,310.23,794.5969" style="stroke:#181818;stroke-width:1;stroke-linejoin:miter;stroke-miterlimit:10;"/><text fill="#000000" font-family="sans-serif" font-size="13" lengthAdjust="spacing" textLength="164.8486" x="236.51" y="761.1338">exact compiled definition</text></g><!--link toml to factory--><g class="link" data-entity-1="ent0027" data-entity-2="ent0015" data-link-type="dependency" data-source-line="36" id="lnk29"><path d="M1009.19,1090.7369 C1002.84,1106.3769 992.59,1125.6269 977.51,1137.5469 C953.78,1156.3069 928.8735,1167.354 899.7335,1175.544" fill="none" id="toml-to-factory" style="stroke:#181818;stroke-width:1;"/><polygon fill="#181818" points="894.92,1176.8969,904.6666,1178.3125,899.7335,1175.544,902.502,1170.6109,894.92,1176.8969" style="stroke:#181818;stroke-width:1;stroke-linejoin:miter;stroke-miterlimit:10;"/><text fill="#000000" font-family="sans-serif" font-size="13" lengthAdjust="spacing" textLength="180.0703" x="993.73" y="1133.6138">selects exactly one adapter</text></g><!--link factory to sqlite--><g class="link" data-entity-1="ent0015" data-entity-2="ent0030" data-link-type="dependency" data-source-line="46" id="lnk37"><path d="M856.11,1220.5169 C872.59,1228.3369 889.07,1238.1269 902.51,1250.1469 C925.7,1270.8769 940.2065,1298.7443 949.3065,1320.1843" fill="none" id="factory-to-sqlite" style="stroke:#181818;stroke-width:1;"/><polygon fill="#181818" points="951.26,1324.7869,951.4257,1314.9394,949.3065,1320.1843,944.0616,1318.065,951.26,1324.7869" style="stroke:#181818;stroke-width:1;stroke-linejoin:miter;stroke-miterlimit:10;"/></g><!--link factory to postgres--><g class="link" data-entity-1="ent0015" data-entity-2="ent0031" data-link-type="dependency" data-source-line="47" id="lnk38"><path d="M863.1,1220.5869 C886.95,1228.9669 912.65,1239.0069 935.51,1250.1469 C970.54,1267.2069 977.29,1275.2369 1009.51,1297.1469 C1022.3,1305.8369 1032.1292,1312.8484 1043.9692,1321.5384" fill="none" id="factory-to-postgres" style="stroke:#181818;stroke-width:1;"/><polygon fill="#181818" points="1048,1324.4969,1043.1113,1315.947,1043.9692,1321.5384,1038.3777,1322.3963,1048,1324.4969" style="stroke:#181818;stroke-width:1;stroke-linejoin:miter;stroke-miterlimit:10;"/></g><!--link factory to timescale--><g class="link" data-entity-1="ent0015" data-entity-2="ent0032" data-link-type="dependency" data-source-line="48" id="lnk39"><path d="M894.58,1216.9969 C968.41,1233.6069 1065.14,1259.9169 1145.51,1297.1469 C1161.34,1304.4769 1173.5023,1312.1415 1186.6023,1321.6415" fill="none" id="factory-to-timescale" style="stroke:#181818;stroke-width:1;"/><polygon fill="#181818" points="1190.65,1324.5769,1185.7124,1316.0551,1186.6023,1321.6415,1181.0159,1322.5314,1190.65,1324.5769" style="stroke:#181818;stroke-width:1;stroke-linejoin:miter;stroke-miterlimit:10;"/></g><!--link factory to mysql--><g class="link" data-entity-1="ent0015" data-entity-2="ent0033" data-link-type="dependency" data-source-line="49" id="lnk40"><path d="M894.87,1206.8569 C1000.67,1220.4269 1160.34,1247.4169 1291.51,1297.1469 C1310.35,1304.2869 1325.7385,1312.3945 1341.6885,1322.0145" fill="none" id="factory-to-mysql" style="stroke:#181818;stroke-width:1;"/><polygon fill="#181818" points="1345.97,1324.5969,1340.3291,1316.5234,1341.6885,1322.0145,1336.1974,1323.3739,1345.97,1324.5969" style="stroke:#181818;stroke-width:1;stroke-linejoin:miter;stroke-miterlimit:10;"/></g><!--link factory to sqlserver--><g class="link" data-entity-1="ent0015" data-entity-2="ent0034" data-link-type="dependency" data-source-line="50" id="lnk41"><path d="M894.78,1204.8769 C1063,1220.7169 1366.7,1254.1769 1467.51,1297.1469 C1483.06,1303.7769 1494.5194,1311.4917 1506.5894,1321.3617" fill="none" id="factory-to-sqlserver" style="stroke:#181818;stroke-width:1;"/><polygon fill="#181818" points="1510.46,1324.5269,1506.025,1315.7331,1506.5894,1321.3617,1500.9607,1321.9261,1510.46,1324.5269" style="stroke:#181818;stroke-width:1;stroke-linejoin:miter;stroke-miterlimit:10;"/></g><!--link factory to spool--><g class="link" data-entity-1="ent0015" data-entity-2="ent0036" data-link-type="dependency" data-source-line="51" id="lnk42"><path d="M894.88,1195.3469 C1056.73,1199.1369 1358.61,1217.4969 1601.51,1297.1469 C1622.84,1304.1369 1640.9631,1312.4925 1659.3231,1322.1325" fill="none" id="factory-to-spool" style="stroke:#181818;stroke-width:1;"/><polygon fill="#181818" points="1663.75,1324.4569,1657.6411,1316.7315,1659.3231,1322.1325,1653.9221,1323.8145,1663.75,1324.4569" style="stroke:#181818;stroke-width:1;stroke-linejoin:miter;stroke-miterlimit:10;"/><text fill="#000000" font-family="sans-serif" font-size="13" lengthAdjust="spacing" textLength="178.6611" x="1494.48" y="1263.2138">Influx acceptance authority</text></g><!--link spool to influx--><g class="link" data-entity-1="ent0036" data-entity-2="ent0035" data-link-type="dependency" data-source-line="52" id="lnk43"><path d="M1702.51,1370.3869 C1702.51,1398.3769 1702.51,1441.6169 1702.51,1469.6569" fill="none" id="spool-to-influx" style="stroke:#181818;stroke-width:1;"/><polygon fill="#181818" points="1702.51,1474.6569,1706.51,1465.6569,1702.51,1469.6569,1698.51,1465.6569,1702.51,1474.6569" style="stroke:#181818;stroke-width:1;stroke-linejoin:miter;stroke-miterlimit:10;"/><text fill="#000000" font-family="sans-serif" font-size="13" lengthAdjust="spacing" textLength="208.6411" x="1703.51" y="1441.0038">ordered bounded HTTPS chunks</text></g><!--link factory to GMN47--><g class="link" data-entity-1="ent0015" data-entity-2="ent0048" data-link-type="association" data-source-line="60" id="lnk49"><path d="M894.68,1193.9969 C1067.05,1194.5069 1401.78,1202.3769 1681.51,1250.1469 C1744.69,1260.9369 1812.92,1279.0269 1871.5,1296.6569" fill="none" id="factory-GMN47" style="stroke:#181818;stroke-width:1;stroke-dasharray:7,7;"/></g><?plantuml-src TLR1RkCs4BthAmO-DKZiFVIsXmARDT1T847ITO1Uza9JjCqrHQeSAevRzD_xXgGYsMqlXcI-uSoyUJEZP9CpbEAmUQ6dtlYd5sfLKbl5XdeJsN8oNfk6ZzRtAggETEZwu8rFctI6QJGwARztfcbwfOzgRsZn_F2PM2jFwH2DQXVqLqEJ7Iq-fHJjTaYc9RZjOzZZObwGOk9q2VtLU1EL89z2UewX7RI9P3t3gJR5fgz_ywNfnaIhdFrJR4jc_R1rbWyc5hFn3MRlEI_km-1RcF11HTCkEzE5UAPe_JuRoGFmd6Yv_6NoJ1-fDTg1e6I3NxRHlXfF1Zz9effmsMfq32kG6yGTQ0onPU6SE0mHbDCCA6RY6XPiXMtQILbQEaMRaC7VC_Q_14Gtgzt_LM6JCtpC2MQ2qYOxBdKOOvWPF0JcJrg3e8GOFWVFGrUvT3Yw1A_DpdehR20t3kxLnE_-9pt4ACUteCI6IAOF-d1JcAseosjAOCzJDh-7UAnEJ_dnEiRz7i51AJyWp20-s_T8bbifBh7f55BGV3FAfs3_o_CwQ2G9iLj_f9qIs1bt1XpI1-hiNiI99wcVzxYct5cHLuGFgCghPU7a5XOjGAAqfDB0k9Jr0P5HyEvCQfT42OE6o7atE1AFDxL518-hio146QLOq0PY61dkWtCYr78aAAaHC56TQAiIV36YW4MAmH5xrVCXIFTbN1PShOWOLNdUaddhdTKs5LX4wviSouWLmr8OKRSq0DZ9s0_KEwND8RWMXsqbbdCtIKRPj18dEgziWQ5SFbKuoCobJ6rrSscMpZqitcy7NANGMKqWXg6uM-gKzP2Ip0zSCbhMTYvAaD3VS42JTaXZHBYmBzrSOPUkCV62jng1WYR_QXpYnUCOaVYb64vy6NfD_YCvjR_BJDsD7k3shYXBMsVL-2xPe-5LJ5QSqq9u2Mav1RlwmS5diKp_DJCbHcdXpgp0ZFlkjvWS1dtHMjRHTjQ3iT9XSjxCEBXIHU58xhLEKfnyYU5rFOr3IboCe724GgfLlOolPfg_czyUCD6AqFzmU9oTFMEoxQC1f3HkUUKPuWLPOVCuixul2OplCypZ6HT0ZOyA-w7YkZESNKP1s1-lTTBWaFFR3FBLxzpmjhwddpF4vjVP-Ng8Qej1NH8YxaDmvJ9vQfgvy6gc5reSavl_EQKp_xS4VtLVZVVYNt6CIfJ8IM6sz7cDaXhI8M2Jd9k24NH9270qli6mectTZ5zUNfutf0-3FtBJG7W6HmaLfx0h-t4zaY0o9yiKXiIsbKraQFmuM3NVP7u5HBbpuGHTIOFmD63gMfbwUTM8IiNXlzoEy_QRSRbDq8DLMopwx72TD7sKWwbDfHdle6-HVP-miil6rIJxSjbXCLSCAJYMuDKMuiU7IvDdRnqfQ6iHSy8mP9MxTZLoF32cR5kKq62UBV4DbQvQchPc5w9yINMI59hHXnFwQMyawrNpjKw_UYxDVbStJnu84jlx-gaq8gP6ufqDqODy5jIv8oQW0IJIrWLzB4L9Y6te9vR_0G00?></g></svg>