<svg xmlns="http://www.w3.org/2000/svg" xmlns:xlink="http://www.w3.org/1999/xlink" contentStyleType="text/css" data-diagram-type="DESCRIPTION" height="512px" preserveAspectRatio="none" style="width:1548px;height:512px;background:#FEFEFE;" version="1.1" viewBox="0 0 1548 512" width="1548px" zoomAndPan="magnify"><?plantuml 1.2026.6?><defs/><g><rect fill="#FEFEFE" height="512" style="stroke:none;stroke-width:1;" width="1548" x="0" y="0"/><g class="title" data-source-line="8"><text fill="#000000" font-family="Verdana" font-size="22" font-weight="700" lengthAdjust="spacing" textLength="687.5752" x="429.2124" y="35.4209">truST PLCopen Interchange: Public Contract Ownership</text></g><!--cluster Reviewed Product Authority--><g class="cluster" data-qualified-name="Reviewed Product Authority" data-source-line="10" id="ent0001"><path d="M342.5,57.6094 L565.7568,57.6094 A3.75,3.75 0 0 1 568.2568,60.1094 L575.2568,79.9063 L1321.5,79.9063 A2.5,2.5 0 0 1 1324,82.4063 L1324,145.4094 A2.5,2.5 0 0 1 1321.5,147.9094 L342.5,147.9094 A2.5,2.5 0 0 1 340,145.4094 L340,60.1094 A2.5,2.5 0 0 1 342.5,57.6094" fill="#FFFFFF" style="stroke:#000000;stroke-width:1;"/><line style="stroke:#000000;stroke-width:1;" x1="340" x2="575.2568" y1="79.9063" y2="79.9063"/><text fill="#000000" font-family="Verdana" font-size="14" font-weight="700" lengthAdjust="spacing" textLength="222.2568" x="344" y="72.6045">Reviewed Product Authority</text></g><!--cluster Public contract includes\n(crates/trust-plcopen/src/plcopen)--><g class="cluster" data-qualified-name="Public contract includes.n.crates.trust-plcopen.src.plcopen." data-source-line="18" id="ent0007"><path d="M13.5,171.9094 L284.1846,171.9094 A3.75,3.75 0 0 1 286.6846,174.4094 L293.6846,210.5031 L1530.5,210.5031 A2.5,2.5 0 0 1 1533,213.0031 L1533,298.9994 A2.5,2.5 0 0 1 1530.5,301.4994 L13.5,301.4994 A2.5,2.5 0 0 1 11,298.9994 L11,174.4094 A2.5,2.5 0 0 1 13.5,171.9094" fill="#FFFFFF" style="stroke:#000000;stroke-width:1;"/><line style="stroke:#000000;stroke-width:1;" x1="11" x2="293.6846" y1="210.5031" y2="210.5031"/><text fill="#000000" font-family="Verdana" font-size="14" font-weight="700" lengthAdjust="spacing" textLength="189.4922" x="55.0962" y="186.9045">Public contract includes</text><text fill="#000000" font-family="Verdana" font-size="14" font-weight="700" lengthAdjust="spacing" textLength="269.6846" x="15" y="203.2014">(crates/trust-plcopen/src/plcopen)</text></g><!--cluster Interchange implementation--><g class="cluster" data-qualified-name="Interchange implementation" data-source-line="27" id="ent0014"><path d="M487.5,325.4994 L713.8057,325.4994 A3.75,3.75 0 0 1 716.3057,327.9994 L723.3057,347.7963 L1114.5,347.7963 A2.5,2.5 0 0 1 1117,350.2963 L1117,420.2994 A2.5,2.5 0 0 1 1114.5,422.7994 L487.5,422.7994 A2.5,2.5 0 0 1 485,420.2994 L485,327.9994 A2.5,2.5 0 0 1 487.5,325.4994" fill="#FFFFFF" style="stroke:#000000;stroke-width:1;"/><line style="stroke:#000000;stroke-width:1;" x1="485" x2="723.3057" y1="347.7963" y2="347.7963"/><text fill="#000000" font-family="Verdana" font-size="14" font-weight="700" lengthAdjust="spacing" textLength="225.3057" x="489" y="340.4945">Interchange implementation</text></g><!--entity profileInvariant--><g class="entity" data-qualified-name="Reviewed Product Authority.profileInvariant" data-source-line="11" id="ent0002"><rect fill="#FFFFFF" height="39.2969" rx="2.5" ry="2.5" style="stroke:#000000;stroke-width:1;" width="166.8623" x="355.57" y="92.6094"/><polygon fill="#FFFFFF" points="505.4323,97.6094,505.4323,111.6094,517.4323,111.6094,517.4323,103.6094,511.4323,97.6094,505.4323,97.6094" style="stroke:#000000;stroke-width:1;stroke-linejoin:miter;stroke-miterlimit:10;"/><line style="stroke:#000000;stroke-width:1;" x1="511.4323" x2="511.4323" y1="97.6094" y2="103.6094"/><line style="stroke:#000000;stroke-width:1;" x1="517.4323" x2="511.4323" y1="103.6094" y2="103.6094"/><text fill="#000000" font-family="Verdana" font-size="14" lengthAdjust="spacing" textLength="136.8623" x="365.57" y="118.6045">ST-complete profile</text></g><!--entity interchangeInvariant--><g class="entity" data-qualified-name="Reviewed Product Authority.interchangeInvariant" data-source-line="12" id="ent0003"><rect fill="#FFFFFF" height="39.2969" rx="2.5" ry="2.5" style="stroke:#000000;stroke-width:1;" width="206.4766" x="562.76" y="92.6094"/><polygon fill="#FFFFFF" points="752.2366,97.6094,752.2366,111.6094,764.2366,111.6094,764.2366,103.6094,758.2366,97.6094,752.2366,97.6094" style="stroke:#000000;stroke-width:1;stroke-linejoin:miter;stroke-miterlimit:10;"/><line style="stroke:#000000;stroke-width:1;" x1="758.2366" x2="758.2366" y1="97.6094" y2="103.6094"/><line style="stroke:#000000;stroke-width:1;" x1="764.2366" x2="758.2366" y1="103.6094" y2="103.6094"/><text fill="#000000" font-family="Verdana" font-size="14" lengthAdjust="spacing" textLength="176.4766" x="572.76" y="118.6045">ST-complete interchange</text></g><!--entity exportInvariant--><g class="entity" data-qualified-name="Reviewed Product Authority.exportInvariant" data-source-line="13" id="ent0004"><rect fill="#FFFFFF" height="39.2969" rx="2.5" ry="2.5" style="stroke:#000000;stroke-width:1;" width="142.3623" x="808.82" y="92.6094"/><polygon fill="#FFFFFF" points="934.1823,97.6094,934.1823,111.6094,946.1823,111.6094,946.1823,103.6094,940.1823,97.6094,934.1823,97.6094" style="stroke:#000000;stroke-width:1;stroke-linejoin:miter;stroke-miterlimit:10;"/><line style="stroke:#000000;stroke-width:1;" x1="940.1823" x2="940.1823" y1="97.6094" y2="103.6094"/><line style="stroke:#000000;stroke-width:1;" x1="946.1823" x2="940.1823" y1="103.6094" y2="103.6094"/><text fill="#000000" font-family="Verdana" font-size="14" lengthAdjust="spacing" textLength="112.3623" x="818.82" y="118.6045">Export adapters</text></g><!--entity migrationInvariant--><g class="entity" data-qualified-name="Reviewed Product Authority.migrationInvariant" data-source-line="14" id="ent0005"><rect fill="#FFFFFF" height="39.2969" rx="2.5" ry="2.5" style="stroke:#000000;stroke-width:1;" width="150.8184" x="991.59" y="92.6094"/><polygon fill="#FFFFFF" points="1125.4084,97.6094,1125.4084,111.6094,1137.4084,111.6094,1137.4084,103.6094,1131.4084,97.6094,1125.4084,97.6094" style="stroke:#000000;stroke-width:1;stroke-linejoin:miter;stroke-miterlimit:10;"/><line style="stroke:#000000;stroke-width:1;" x1="1131.4084" x2="1131.4084" y1="97.6094" y2="103.6094"/><line style="stroke:#000000;stroke-width:1;" x1="1137.4084" x2="1131.4084" y1="103.6094" y2="103.6094"/><text fill="#000000" font-family="Verdana" font-size="14" lengthAdjust="spacing" textLength="120.8184" x="1001.59" y="118.6045">Migration reports</text></g><!--entity shimInvariant--><g class="entity" data-qualified-name="Reviewed Product Authority.shimInvariant" data-source-line="15" id="ent0006"><rect fill="#FFFFFF" height="39.2969" rx="2.5" ry="2.5" style="stroke:#000000;stroke-width:1;" width="125.71" x="1182.15" y="92.6094"/><polygon fill="#FFFFFF" points="1290.86,97.6094,1290.86,111.6094,1302.86,111.6094,1302.86,103.6094,1296.86,97.6094,1290.86,97.6094" style="stroke:#000000;stroke-width:1;stroke-linejoin:miter;stroke-miterlimit:10;"/><line style="stroke:#000000;stroke-width:1;" x1="1296.86" x2="1296.86" y1="97.6094" y2="103.6094"/><line style="stroke:#000000;stroke-width:1;" x1="1302.86" x2="1296.86" y1="103.6094" y2="103.6094"/><text fill="#000000" font-family="Verdana" font-size="14" lengthAdjust="spacing" textLength="95.71" x="1192.15" y="118.6045">Vendor shims</text></g><!--entity profileContracts--><g class="entity" data-qualified-name="Public contract includes.n.crates.trust-plcopen.src.plcopen..profileContracts" data-source-line="19" id="ent0008"><rect fill="#FFFFFF" height="62.5938" rx="2.5" ry="2.5" style="stroke:#000000;stroke-width:1;" width="233.751" x="27.12" y="222.9094"/><rect fill="#FFFFFF" height="10" style="stroke:#000000;stroke-width:1;" width="15" x="240.871" y="227.9094"/><rect fill="#FFFFFF" height="2" style="stroke:#000000;stroke-width:1;" width="4" x="238.871" y="229.9094"/><rect fill="#FFFFFF" height="2" style="stroke:#000000;stroke-width:1;" width="4" x="238.871" y="233.9094"/><text fill="#000000" font-family="Verdana" font-size="14" lengthAdjust="spacing" textLength="134.4697" x="42.12" y="255.9045">contracts_profile.rs</text><text fill="#000000" font-family="Verdana" font-size="14" lengthAdjust="spacing" textLength="193.751" x="42.12" y="272.2014">profile + compatibility rows</text></g><!--entity importContracts--><g class="entity" data-qualified-name="Public contract includes.n.crates.trust-plcopen.src.plcopen..importContracts" data-source-line="20" id="ent0009"><rect fill="#FFFFFF" height="62.5938" rx="2.5" ry="2.5" style="stroke:#000000;stroke-width:1;" width="205.9355" x="301.03" y="222.9094"/><rect fill="#FFFFFF" height="10" style="stroke:#000000;stroke-width:1;" width="15" x="486.9655" y="227.9094"/><rect fill="#FFFFFF" height="2" style="stroke:#000000;stroke-width:1;" width="4" x="484.9655" y="229.9094"/><rect fill="#FFFFFF" height="2" style="stroke:#000000;stroke-width:1;" width="4" x="484.9655" y="233.9094"/><text fill="#000000" font-family="Verdana" font-size="14" lengthAdjust="spacing" textLength="136.165" x="316.03" y="255.9045">contracts_import.rs</text><text fill="#000000" font-family="Verdana" font-size="14" lengthAdjust="spacing" textLength="165.9355" x="316.03" y="272.2014">import report + options</text></g><!--entity pouContracts--><g class="entity" data-qualified-name="Public contract includes.n.crates.trust-plcopen.src.plcopen..pouContracts" data-source-line="21" id="ent0010"><rect fill="#FFFFFF" height="62.5938" rx="2.5" ry="2.5" style="stroke:#000000;stroke-width:1;" width="204.3018" x="546.85" y="222.9094"/><rect fill="#FFFFFF" height="10" style="stroke:#000000;stroke-width:1;" width="15" x="731.1518" y="227.9094"/><rect fill="#FFFFFF" height="2" style="stroke:#000000;stroke-width:1;" width="4" x="729.1518" y="229.9094"/><rect fill="#FFFFFF" height="2" style="stroke:#000000;stroke-width:1;" width="4" x="729.1518" y="233.9094"/><text fill="#000000" font-family="Verdana" font-size="14" lengthAdjust="spacing" textLength="116.2656" x="561.85" y="255.9045">contracts_pou.rs</text><text fill="#000000" font-family="Verdana" font-size="14" lengthAdjust="spacing" textLength="164.3018" x="561.85" y="272.2014">POU kind normalization</text></g><!--entity exportContracts--><g class="entity" data-qualified-name="Public contract includes.n.crates.trust-plcopen.src.plcopen..exportContracts" data-source-line="22" id="ent0011"><rect fill="#FFFFFF" height="62.5938" rx="2.5" ry="2.5" style="stroke:#000000;stroke-width:1;" width="211.1445" x="791.43" y="222.9094"/><rect fill="#FFFFFF" height="10" style="stroke:#000000;stroke-width:1;" width="15" x="982.5745" y="227.9094"/><rect fill="#FFFFFF" height="2" style="stroke:#000000;stroke-width:1;" width="4" x="980.5745" y="229.9094"/><rect fill="#FFFFFF" height="2" style="stroke:#000000;stroke-width:1;" width="4" x="980.5745" y="233.9094"/><text fill="#000000" font-family="Verdana" font-size="14" lengthAdjust="spacing" textLength="135.5361" x="806.43" y="255.9045">contracts_export.rs</text><text fill="#000000" font-family="Verdana" font-size="14" lengthAdjust="spacing" textLength="171.1445" x="806.43" y="272.2014">targets + export reports</text></g><!--entity migrationContracts--><g class="entity" data-qualified-name="Public contract includes.n.crates.trust-plcopen.src.plcopen..migrationContracts" data-source-line="23" id="ent0012"><rect fill="#FFFFFF" height="62.5938" rx="2.5" ry="2.5" style="stroke:#000000;stroke-width:1;" width="255.0586" x="1042.47" y="222.9094"/><rect fill="#FFFFFF" height="10" style="stroke:#000000;stroke-width:1;" width="15" x="1277.5286" y="227.9094"/><rect fill="#FFFFFF" height="2" style="stroke:#000000;stroke-width:1;" width="4" x="1275.5286" y="229.9094"/><rect fill="#FFFFFF" height="2" style="stroke:#000000;stroke-width:1;" width="4" x="1275.5286" y="233.9094"/><text fill="#000000" font-family="Verdana" font-size="14" lengthAdjust="spacing" textLength="157.5068" x="1057.47" y="255.9045">contracts_migration.rs</text><text fill="#000000" font-family="Verdana" font-size="14" lengthAdjust="spacing" textLength="215.0586" x="1057.47" y="272.2014">migration report + diagnostics</text></g><!--entity shimContracts--><g class="entity" data-qualified-name="Public contract includes.n.crates.trust-plcopen.src.plcopen..shimContracts" data-source-line="24" id="ent0013"><rect fill="#FFFFFF" height="62.5938" rx="2.5" ry="2.5" style="stroke:#000000;stroke-width:1;" width="179.501" x="1337.25" y="222.9094"/><rect fill="#FFFFFF" height="10" style="stroke:#000000;stroke-width:1;" width="15" x="1496.751" y="227.9094"/><rect fill="#FFFFFF" height="2" style="stroke:#000000;stroke-width:1;" width="4" x="1494.751" y="229.9094"/><rect fill="#FFFFFF" height="2" style="stroke:#000000;stroke-width:1;" width="4" x="1494.751" y="233.9094"/><text fill="#000000" font-family="Verdana" font-size="14" lengthAdjust="spacing" textLength="130.9287" x="1352.25" y="255.9045">contracts_shims.rs</text><text fill="#000000" font-family="Verdana" font-size="14" lengthAdjust="spacing" textLength="139.501" x="1352.25" y="272.2014">applied shim record</text></g><!--entity profileImpl--><g class="entity" data-qualified-name="Interchange implementation.profileImpl" data-source-line="28" id="ent0015"><rect fill="#FFFFFF" height="46.2969" rx="2.5" ry="2.5" style="stroke:#000000;stroke-width:1;" width="102.0293" x="500.99" y="360.4994"/><rect fill="#FFFFFF" height="10" style="stroke:#000000;stroke-width:1;" width="15" x="583.0193" y="365.4994"/><rect fill="#FFFFFF" height="2" style="stroke:#000000;stroke-width:1;" width="4" x="581.0193" y="367.4994"/><rect fill="#FFFFFF" height="2" style="stroke:#000000;stroke-width:1;" width="4" x="581.0193" y="371.4994"/><text fill="#000000" font-family="Verdana" font-size="14" lengthAdjust="spacing" textLength="62.0293" x="515.99" y="393.4945">profile.rs</text></g><!--entity importImpl--><g class="entity" data-qualified-name="Interchange implementation.importImpl" data-source-line="29" id="ent0016"><rect fill="#FFFFFF" height="46.2969" rx="2.5" ry="2.5" style="stroke:#000000;stroke-width:1;" width="110.7246" x="642.64" y="360.4994"/><rect fill="#FFFFFF" height="10" style="stroke:#000000;stroke-width:1;" width="15" x="733.3646" y="365.4994"/><rect fill="#FFFFFF" height="2" style="stroke:#000000;stroke-width:1;" width="4" x="731.3646" y="367.4994"/><rect fill="#FFFFFF" height="2" style="stroke:#000000;stroke-width:1;" width="4" x="731.3646" y="371.4994"/><text fill="#000000" font-family="Verdana" font-size="14" lengthAdjust="spacing" textLength="70.7246" x="657.64" y="393.4945">import*.rs</text></g><!--entity exportImpl--><g class="entity" data-qualified-name="Interchange implementation.exportImpl" data-source-line="30" id="ent0017"><rect fill="#FFFFFF" height="46.2969" rx="2.5" ry="2.5" style="stroke:#000000;stroke-width:1;" width="110.0957" x="792.95" y="360.4994"/><rect fill="#FFFFFF" height="10" style="stroke:#000000;stroke-width:1;" width="15" x="883.0457" y="365.4994"/><rect fill="#FFFFFF" height="2" style="stroke:#000000;stroke-width:1;" width="4" x="881.0457" y="367.4994"/><rect fill="#FFFFFF" height="2" style="stroke:#000000;stroke-width:1;" width="4" x="881.0457" y="371.4994"/><text fill="#000000" font-family="Verdana" font-size="14" lengthAdjust="spacing" textLength="70.0957" x="807.95" y="393.4945">export*.rs</text></g><!--entity migrationImpl--><g class="entity" data-qualified-name="Interchange implementation.migrationImpl" data-source-line="31" id="ent0018"><rect fill="#FFFFFF" height="46.2969" rx="2.5" ry="2.5" style="stroke:#000000;stroke-width:1;" width="157.8652" x="943.07" y="360.4994"/><rect fill="#FFFFFF" height="10" style="stroke:#000000;stroke-width:1;" width="15" x="1080.9352" y="365.4994"/><rect fill="#FFFFFF" height="2" style="stroke:#000000;stroke-width:1;" width="4" x="1078.9352" y="367.4994"/><rect fill="#FFFFFF" height="2" style="stroke:#000000;stroke-width:1;" width="4" x="1078.9352" y="371.4994"/><text fill="#000000" font-family="Verdana" font-size="14" lengthAdjust="spacing" textLength="117.8652" x="958.07" y="393.4945">shims_metrics.rs</text></g><g class="entity" data-qualified-name="GMN33" data-source-line="51" id="ent0034"><path d="M766.41,441.7994 L766.41,497.1978 A0,0 0 0 0 766.41,497.1978 L1277.5824,497.1978 A0,0 0 0 0 1277.5824,497.1978 L1277.5824,451.7994 L1267.5824,441.7994 L1026,441.7994 L1022,407.1094 L1018,441.7994 L766.41,441.7994 A0,0 0 0 0 766.41,441.7994" fill="#FFFFFF" style="stroke:#000000;stroke-width:1;"/><path d="M1267.5824,441.7994 L1267.5824,451.7994 L1277.5824,451.7994 L1267.5824,441.7994" fill="#FFFFFF" style="stroke:#000000;stroke-width:1;"/><text fill="#000000" font-family="Verdana" font-size="13" lengthAdjust="spacing" textLength="418.5962" x="772.41" y="458.8663">The files are flattened into the trust-plcopen crate with include!.</text><text fill="#000000" font-family="Verdana" font-size="13" lengthAdjust="spacing" textLength="490.1724" x="772.41" y="473.9991">The split changes source ownership only; public Rust names and execution</text><text fill="#000000" font-family="Verdana" font-size="13" lengthAdjust="spacing" textLength="157.5679" x="772.41" y="489.1319">flow remain unchanged.</text></g><!--link profileInvariant to profileContracts--><g class="link" data-entity-1="ent0002" data-entity-2="ent0008" data-link-type="dependency" data-source-line="34" id="lnk19"><path d="M355.25,112.1994 C268.04,112.1994 144,112.1994 144,112.1994 C144,112.1994 144,175.8594 144,217.6894" fill="none" id="profileInvariant-to-profileContracts" style="stroke:#000000;stroke-width:1;"/><polygon fill="#000000" points="144,222.6894,148,213.6894,144,217.6894,140,213.6894,144,222.6894" style="stroke:#000000;stroke-width:1;stroke-linejoin:miter;stroke-miterlimit:10;"/></g><!--link interchangeInvariant to importContracts--><g class="link" data-entity-1="ent0003" data-entity-2="ent0009" data-link-type="dependency" data-source-line="35" id="lnk20"><path d="M562.5,112.1994 C546.22,112.1994 534.64,112.1994 534.64,112.1994 C534.64,112.1994 534.64,254.1994 534.64,254.1994 C534.64,254.1994 528.28,254.1994 512.25,254.1994" fill="none" id="interchangeInvariant-to-importContracts" style="stroke:#000000;stroke-width:1;"/><polygon fill="#000000" points="507.25,254.1994,516.25,258.1994,512.25,254.1994,516.25,250.1994,507.25,254.1994" style="stroke:#000000;stroke-width:1;stroke-linejoin:miter;stroke-miterlimit:10;"/></g><!--link interchangeInvariant to pouContracts--><g class="link" data-entity-1="ent0003" data-entity-2="ent0010" data-link-type="dependency" data-source-line="36" id="lnk21"><path d="M656.96,132.2994 C656.96,155.7594 656.96,189.9194 656.96,217.5094" fill="none" id="interchangeInvariant-to-pouContracts" style="stroke:#000000;stroke-width:1;"/><polygon fill="#000000" points="656.96,222.5094,660.96,213.5094,656.96,217.5094,652.96,213.5094,656.96,222.5094" style="stroke:#000000;stroke-width:1;stroke-linejoin:miter;stroke-miterlimit:10;"/></g><!--link exportInvariant to exportContracts--><g class="link" data-entity-1="ent0004" data-entity-2="ent0011" data-link-type="dependency" data-source-line="37" id="lnk22"><path d="M880,132.2994 C880,155.7594 880,189.9194 880,217.5094" fill="none" id="exportInvariant-to-exportContracts" style="stroke:#000000;stroke-width:1;"/><polygon fill="#000000" points="880,222.5094,884,213.5094,880,217.5094,876,213.5094,880,222.5094" style="stroke:#000000;stroke-width:1;stroke-linejoin:miter;stroke-miterlimit:10;"/></g><!--link migrationInvariant to migrationContracts--><g class="link" data-entity-1="ent0005" data-entity-2="ent0012" data-link-type="dependency" data-source-line="38" id="lnk23"><path d="M1092.44,132.2994 C1092.44,155.7594 1092.44,189.9194 1092.44,217.5094" fill="none" id="migrationInvariant-to-migrationContracts" style="stroke:#000000;stroke-width:1;"/><polygon fill="#000000" points="1092.44,222.5094,1096.44,213.5094,1092.44,217.5094,1088.44,213.5094,1092.44,222.5094" style="stroke:#000000;stroke-width:1;stroke-linejoin:miter;stroke-miterlimit:10;"/></g><!--link shimInvariant to shimContracts--><g class="link" data-entity-1="ent0006" data-entity-2="ent0013" data-link-type="dependency" data-source-line="39" id="lnk24"><path d="M1302.69,132.2994 C1302.69,171.4194 1302.69,254.1994 1302.69,254.1994 C1302.69,254.1994 1312.55,254.1994 1331.99,254.1994" fill="none" id="shimInvariant-to-shimContracts" style="stroke:#000000;stroke-width:1;"/><polygon fill="#000000" points="1336.99,254.1994,1327.99,250.1994,1331.99,254.1994,1327.99,258.1994,1336.99,254.1994" style="stroke:#000000;stroke-width:1;stroke-linejoin:miter;stroke-miterlimit:10;"/></g><!--link profileContracts to profileImpl--><g class="link" data-entity-1="ent0008" data-entity-2="ent0015" data-link-type="dependency" data-source-line="41" id="lnk25"><path d="M144,285.7594 C144,323.9494 144,383.1994 144,383.1994 C144,383.1994 386.16,383.1994 495.74,383.1994" fill="none" id="profileContracts-to-profileImpl" style="stroke:#000000;stroke-width:1;"/><polygon fill="#000000" points="500.74,383.1994,491.74,379.1994,495.74,383.1994,491.74,387.1994,500.74,383.1994" style="stroke:#000000;stroke-width:1;stroke-linejoin:miter;stroke-miterlimit:10;"/></g><!--link importContracts to importImpl--><g class="link" data-entity-1="ent0009" data-entity-2="ent0016" data-link-type="dependency" data-source-line="42" id="lnk26"><path d="M401.01,285.7494 C401.01,308.4894 401.01,335.1994 401.01,335.1994 C401.01,335.1994 669.77,335.1994 669.77,335.1994 C669.77,335.1994 669.77,342.8894 669.77,355.2794" fill="none" id="importContracts-to-importImpl" style="stroke:#000000;stroke-width:1;"/><polygon fill="#000000" points="669.77,360.2794,673.77,351.2794,669.77,355.2794,665.77,351.2794,669.77,360.2794" style="stroke:#000000;stroke-width:1;stroke-linejoin:miter;stroke-miterlimit:10;"/></g><!--link pouContracts to importImpl--><g class="link" data-entity-1="ent0010" data-entity-2="ent0016" data-link-type="dependency" data-source-line="43" id="lnk27"><path d="M696.89,285.8694 C696.89,308.7794 696.89,334.2294 696.89,355.0294" fill="none" id="pouContracts-to-importImpl" style="stroke:#000000;stroke-width:1;"/><polygon fill="#000000" points="696.89,360.0294,700.89,351.0294,696.89,355.0294,692.89,351.0294,696.89,360.0294" style="stroke:#000000;stroke-width:1;stroke-linejoin:miter;stroke-miterlimit:10;"/></g><!--link pouContracts to exportImpl--><g class="link" data-entity-1="ent0010" data-entity-2="ent0017" data-link-type="dependency" data-source-line="44" id="lnk28"><path d="M751.55,254.1994 C756.76,254.1994 759.89,254.1994 759.89,254.1994 C759.89,254.1994 759.89,383.1994 759.89,383.1994 C759.89,383.1994 769.99,383.1994 787.7,383.1994" fill="none" id="pouContracts-to-exportImpl" style="stroke:#000000;stroke-width:1;"/><polygon fill="#000000" points="792.7,383.1994,783.7,379.1994,787.7,383.1994,783.7,387.1994,792.7,383.1994" style="stroke:#000000;stroke-width:1;stroke-linejoin:miter;stroke-miterlimit:10;"/></g><!--link exportContracts to exportImpl--><g class="link" data-entity-1="ent0011" data-entity-2="ent0017" data-link-type="dependency" data-source-line="45" id="lnk29"><path d="M848,285.8694 C848,308.7794 848,334.2294 848,355.0294" fill="none" id="exportContracts-to-exportImpl" style="stroke:#000000;stroke-width:1;"/><polygon fill="#000000" points="848,360.0294,852,351.0294,848,355.0294,844,351.0294,848,360.0294" style="stroke:#000000;stroke-width:1;stroke-linejoin:miter;stroke-miterlimit:10;"/></g><!--link migrationContracts to importImpl--><g class="link" data-entity-1="ent0012" data-entity-2="ent0016" data-link-type="dependency" data-source-line="46" id="lnk30"><path d="M1061.96,285.7994 C1061.96,298.4994 1061.96,310.1994 1061.96,310.1994 C1061.96,310.1994 724.02,310.1994 724.02,310.1994 C724.02,310.1994 724.02,333.5394 724.02,355.0094" fill="none" id="migrationContracts-to-importImpl" style="stroke:#000000;stroke-width:1;"/><polygon fill="#000000" points="724.02,360.0094,728.02,351.0094,724.02,355.0094,720.02,351.0094,724.02,360.0094" style="stroke:#000000;stroke-width:1;stroke-linejoin:miter;stroke-miterlimit:10;"/></g><!--link migrationContracts to migrationImpl--><g class="link" data-entity-1="ent0012" data-entity-2="ent0018" data-link-type="dependency" data-source-line="47" id="lnk31"><path d="M1081.45,285.8694 C1081.45,308.7794 1081.45,334.2294 1081.45,355.0294" fill="none" id="migrationContracts-to-migrationImpl" style="stroke:#000000;stroke-width:1;"/><polygon fill="#000000" points="1081.45,360.0294,1085.45,351.0294,1081.45,355.0294,1077.45,351.0294,1081.45,360.0294" style="stroke:#000000;stroke-width:1;stroke-linejoin:miter;stroke-miterlimit:10;"/></g><!--link shimContracts to migrationImpl--><g class="link" data-entity-1="ent0013" data-entity-2="ent0018" data-link-type="dependency" data-source-line="48" id="lnk32"><path d="M1427,285.7594 C1427,323.9494 1427,383.1994 1427,383.1994 C1427,383.1994 1223.91,383.1994 1106.05,383.1994" fill="none" id="shimContracts-to-migrationImpl" style="stroke:#000000;stroke-width:1;"/><polygon fill="#000000" points="1101.05,383.1994,1110.05,387.1994,1106.05,383.1994,1110.05,379.1994,1101.05,383.1994" style="stroke:#000000;stroke-width:1;stroke-linejoin:miter;stroke-miterlimit:10;"/></g><?plantuml-src XLLDQnin4BtlhvYubtvWf_JZqaAXX1G2BJ69srCXoDg9BQoLX3GRnotzxnr9NbkxjZ6-oDBJsvdtPaONjCG6mMcXJ1LMoZZXHGDp8LSBRrjJNrbjFRpuTXr_1KBQnbc3Xkvfen7QHhyhJhKoI1k7O3qjRN5WR8q17NnuMsnwOLPny_t7gY95J4U-lP_1zFkLTMZWnX1wkHHcWPzWsiwrad1b3NaX2MxN1drOAbTLZgCM2uJH7JufN6CDKs_hba5VMmx3AzgCu6y583ofntXvT3yRnqmq4elWxQFIE08HklMDUH9U2KCdBwbzREbYyV_uvUjdnwA0g8LZP4YNCEqTn_zG2oz8MGCU8ohVQBhTuvT-eQdPDfQboVYusaF_5LfjzPITdif8tR99lyrBoP_0SCbc11exBQCPby7Bo-twLLPpLmemwbZ2mrR0YMUYxHhU92Y7FLUQlG1lrw5Kk_Cqd29LJLGWSURbLXDcjYwgaUdosLasPzj4DRtz2LoBDHUdRuHMVvAmEJ3RdgN9vYKc4dw153YSlDcpB6-TfTivcnYRWVjCNIknC3QGaeDIE4kToY7H2kUqulw8EymihQztPRAdASkawC6eh-QfmUbceGP5iBU-rqfygO_BDhtkSFdl8IphjeDjU-K0bf9xQ90y2zE1zsqIyJ6VGL_3UFpbiFoEDN523Ylh9B1NE8FsJe1XDHmsT88TCRVNoWdKTwqQfbFcc7GOP55abexBsC-U5NOCKXeU7wOo93-1w9lOI_R8UMKiZ-Mv9R9DDLiYnBG3pqPUQK64XkkUVRF0Jn_qPXkaWGThHSjk35vC4aVWTY78HdENsDPBVjkwbmUiqPlFuF8alMD6CAA97-MXWiyesnXTzQZjcfkjuQSMMfF9wac5QV8GLly1?></g></svg>