{
  "asset": {
    "generator": "glTF-Transform v4.3.0",
    "version": "2.0"
  },
  "accessors": [
    {
      "type": "SCALAR",
      "componentType": 5123,
      "count": 17988,
      "bufferView": 0,
      "byteOffset": 0
    },
    {
      "type": "SCALAR",
      "componentType": 5123,
      "count": 35994,
      "bufferView": 0,
      "byteOffset": 35976
    },
    {
      "type": "SCALAR",
      "componentType": 5123,
      "count": 6000,
      "bufferView": 0,
      "byteOffset": 107964
    },
    {
      "type": "SCALAR",
      "componentType": 5123,
      "count": 3000,
      "bufferView": 0,
      "byteOffset": 119964
    },
    {
      "type": "VEC3",
      "componentType": 5126,
      "count": 6300,
      "max": [
        0.07501000165939331,
        0.6710972189903259,
        0.13500000536441803
      ],
      "min": [
        -0.07501000165939331,
        -0.07400994747877121,
        -0.03630197048187256
      ],
      "bufferView": 1,
      "byteOffset": 0
    },
    {
      "type": "VEC3",
      "componentType": 5126,
      "count": 6300,
      "bufferView": 1,
      "byteOffset": 12
    },
    {
      "type": "VEC3",
      "componentType": 5126,
      "count": 13947,
      "max": [
        0.07515078037977219,
        0.6737000942230225,
        0.036345891654491425
      ],
      "min": [
        -0.10158409923315048,
        -0.0741996094584465,
        -0.04220777004957199
      ],
      "bufferView": 2,
      "byteOffset": 0
    },
    {
      "type": "VEC3",
      "componentType": 5126,
      "count": 13947,
      "bufferView": 2,
      "byteOffset": 12
    },
    {
      "type": "VEC3",
      "componentType": 5126,
      "count": 5514,
      "max": [
        0.06855440139770508,
        0.652660071849823,
        0.002454996109008789
      ],
      "min": [
        -0.06868665665388107,
        -0.057610150426626205,
        -0.04067695140838623
      ],
      "bufferView": 3,
      "byteOffset": 0
    },
    {
      "type": "VEC3",
      "componentType": 5126,
      "count": 5514,
      "bufferView": 3,
      "byteOffset": 12
    },
    {
      "type": "VEC3",
      "componentType": 5126,
      "count": 953,
      "max": [
        0.0749499723315239,
        0.5474001169204712,
        0.11999999731779099
      ],
      "min": [
        -0.0749499723315239,
        0.0867999717593193,
        -0.02950095944106579
      ],
      "bufferView": 4,
      "byteOffset": 0
    },
    {
      "type": "VEC3",
      "componentType": 5126,
      "count": 953,
      "bufferView": 4,
      "byteOffset": 12
    },
    {
      "bufferView": 5,
      "byteOffset": 0,
      "componentType": 5126,
      "count": 6300,
      "type": "VEC2",
      "min": [
        0,
        0
      ],
      "max": [
        0,
        0
      ]
    },
    {
      "bufferView": 6,
      "byteOffset": 0,
      "componentType": 5126,
      "count": 13947,
      "type": "VEC2",
      "min": [
        0,
        0
      ],
      "max": [
        0,
        0
      ]
    },
    {
      "bufferView": 7,
      "byteOffset": 0,
      "componentType": 5126,
      "count": 5514,
      "type": "VEC2",
      "min": [
        0,
        0
      ],
      "max": [
        0,
        0
      ]
    },
    {
      "bufferView": 8,
      "byteOffset": 0,
      "componentType": 5126,
      "count": 953,
      "type": "VEC2",
      "min": [
        0,
        0
      ],
      "max": [
        0,
        0
      ]
    },
    {
      "bufferView": 9,
      "byteOffset": 0,
      "componentType": 5126,
      "count": 6300,
      "type": "VEC4",
      "min": [
        0.937,
        0.267,
        0.267,
        1
      ],
      "max": [
        0.937,
        0.267,
        0.267,
        1
      ]
    },
    {
      "bufferView": 10,
      "byteOffset": 0,
      "componentType": 5126,
      "count": 13947,
      "type": "VEC4",
      "min": [
        0.937,
        0.267,
        0.267,
        1
      ],
      "max": [
        0.937,
        0.267,
        0.267,
        1
      ]
    },
    {
      "bufferView": 11,
      "byteOffset": 0,
      "componentType": 5126,
      "count": 5514,
      "type": "VEC4",
      "min": [
        0.937,
        0.267,
        0.267,
        1
      ],
      "max": [
        0.937,
        0.267,
        0.267,
        1
      ]
    },
    {
      "bufferView": 12,
      "byteOffset": 0,
      "componentType": 5126,
      "count": 953,
      "type": "VEC4",
      "min": [
        0.937,
        0.267,
        0.267,
        1
      ],
      "max": [
        0.937,
        0.267,
        0.267,
        1
      ]
    }
  ],
  "bufferViews": [
    {
      "buffer": 0,
      "byteOffset": 0,
      "byteLength": 125964,
      "target": 34963
    },
    {
      "buffer": 0,
      "byteOffset": 125964,
      "byteLength": 151200,
      "byteStride": 24,
      "target": 34962
    },
    {
      "buffer": 0,
      "byteOffset": 277164,
      "byteLength": 334728,
      "byteStride": 24,
      "target": 34962
    },
    {
      "buffer": 0,
      "byteOffset": 611892,
      "byteLength": 132336,
      "byteStride": 24,
      "target": 34962
    },
    {
      "buffer": 0,
      "byteOffset": 744228,
      "byteLength": 22872,
      "byteStride": 24,
      "target": 34962
    },
    {
      "buffer": 0,
      "byteOffset": 767100,
      "byteLength": 50400,
      "target": 34962
    },
    {
      "buffer": 0,
      "byteOffset": 817500,
      "byteLength": 111576,
      "target": 34962
    },
    {
      "buffer": 0,
      "byteOffset": 929076,
      "byteLength": 44112,
      "target": 34962
    },
    {
      "buffer": 0,
      "byteOffset": 973188,
      "byteLength": 7624,
      "target": 34962
    },
    {
      "buffer": 0,
      "byteOffset": 980812,
      "byteLength": 100800,
      "target": 34962
    },
    {
      "buffer": 0,
      "byteOffset": 1081612,
      "byteLength": 223152,
      "target": 34962
    },
    {
      "buffer": 0,
      "byteOffset": 1304764,
      "byteLength": 88224,
      "target": 34962
    },
    {
      "buffer": 0,
      "byteOffset": 1392988,
      "byteLength": 15248,
      "target": 34962
    }
  ],
  "buffers": [
    {
      "uri": "upperarm.bin",
      "byteLength": 1408236
    }
  ],
  "materials": [
    {
      "name": "SWMaterial-0_001-material",
      "doubleSided": true,
      "pbrMetallicRoughness": {
        "baseColorFactor": [
          0.2227451,
          0.2227451,
          0.2227451,
          1
        ],
        "roughnessFactor": 0.65,
        "metallicFactor": 0.1
      }
    },
    {
      "name": "SWMaterial-1_001-material",
      "doubleSided": true,
      "pbrMetallicRoughness": {
        "baseColorFactor": [
          0.3921569,
          0.5427451,
          0.64,
          1
        ],
        "roughnessFactor": 0.65,
        "metallicFactor": 0.1
      }
    },
    {
      "name": "SWMaterial-2_001-material",
      "doubleSided": true,
      "pbrMetallicRoughness": {
        "baseColorFactor": [
          0.4643137,
          0.4643137,
          0.4643137,
          1
        ],
        "roughnessFactor": 0.65,
        "metallicFactor": 0.1
      }
    },
    {
      "name": "SWMaterial-3_001-material",
      "doubleSided": true,
      "pbrMetallicRoughness": {
        "baseColorFactor": [
          0.6563138,
          0.6563138,
          0.6563138,
          1
        ],
        "roughnessFactor": 0.65,
        "metallicFactor": 0.1
      }
    }
  ],
  "meshes": [
    {
      "name": "upperarm",
      "primitives": [
        {
          "attributes": {
            "POSITION": 4,
            "NORMAL": 5,
            "TEXCOORD_0": 12
          },
          "mode": 4,
          "material": 0,
          "indices": 0
        },
        {
          "attributes": {
            "POSITION": 6,
            "NORMAL": 7,
            "TEXCOORD_0": 13
          },
          "mode": 4,
          "material": 1,
          "indices": 1
        },
        {
          "attributes": {
            "POSITION": 8,
            "NORMAL": 9,
            "TEXCOORD_0": 14
          },
          "mode": 4,
          "material": 2,
          "indices": 2
        },
        {
          "attributes": {
            "POSITION": 10,
            "NORMAL": 11,
            "TEXCOORD_0": 15
          },
          "mode": 4,
          "material": 3,
          "indices": 3
        }
      ]
    }
  ],
  "nodes": [
    {
      "name": "upperarm",
      "mesh": 0
    }
  ],
  "scenes": [
    {
      "nodes": [
        0
      ]
    }
  ],
  "scene": 0
}
