{
  "asset": {
    "generator": "glTF-Transform v4.3.0",
    "version": "2.0"
  },
  "accessors": [
    {
      "type": "SCALAR",
      "componentType": 5123,
      "count": 20997,
      "bufferView": 0,
      "byteOffset": 0
    },
    {
      "type": "SCALAR",
      "componentType": 5123,
      "count": 89307,
      "bufferView": 0,
      "byteOffset": 41996
    },
    {
      "type": "SCALAR",
      "componentType": 5123,
      "count": 1800,
      "bufferView": 0,
      "byteOffset": 220612
    },
    {
      "type": "VEC3",
      "componentType": 5126,
      "count": 3502,
      "max": [
        0.04500066861510277,
        0.16099999845027924,
        0.04871422052383423
      ],
      "min": [
        -0.04500066861510277,
        0.061999909579753876,
        -0.061590731143951416
      ],
      "bufferView": 1,
      "byteOffset": 0
    },
    {
      "type": "VEC3",
      "componentType": 5126,
      "count": 3502,
      "bufferView": 1,
      "byteOffset": 12
    },
    {
      "type": "VEC3",
      "componentType": 5126,
      "count": 14884,
      "max": [
        0.04563099145889282,
        0.16189999878406525,
        0.05717812851071358
      ],
      "min": [
        -0.04535609111189842,
        0.07090990990400314,
        0.010417220182716846
      ],
      "bufferView": 2,
      "byteOffset": 0
    },
    {
      "type": "VEC3",
      "componentType": 5126,
      "count": 14884,
      "bufferView": 2,
      "byteOffset": 12
    },
    {
      "type": "VEC3",
      "componentType": 5126,
      "count": 1646,
      "max": [
        0.035873349756002426,
        0.1571698933839798,
        0.0537102185189724
      ],
      "min": [
        -0.03559594973921776,
        0.062269918620586395,
        0.035210251808166504
      ],
      "bufferView": 3,
      "byteOffset": 0
    },
    {
      "type": "VEC3",
      "componentType": 5126,
      "count": 1646,
      "bufferView": 3,
      "byteOffset": 12
    },
    {
      "bufferView": 4,
      "byteOffset": 0,
      "componentType": 5126,
      "count": 3502,
      "type": "VEC2",
      "min": [
        0,
        0
      ],
      "max": [
        0,
        0
      ]
    },
    {
      "bufferView": 5,
      "byteOffset": 0,
      "componentType": 5126,
      "count": 14884,
      "type": "VEC2",
      "min": [
        0,
        0
      ],
      "max": [
        0,
        0
      ]
    },
    {
      "bufferView": 6,
      "byteOffset": 0,
      "componentType": 5126,
      "count": 1646,
      "type": "VEC2",
      "min": [
        0,
        0
      ],
      "max": [
        0,
        0
      ]
    },
    {
      "bufferView": 7,
      "byteOffset": 0,
      "componentType": 5126,
      "count": 3502,
      "type": "VEC4",
      "min": [
        0.278,
        0.333,
        0.412,
        1
      ],
      "max": [
        0.278,
        0.333,
        0.412,
        1
      ]
    },
    {
      "bufferView": 8,
      "byteOffset": 0,
      "componentType": 5126,
      "count": 14884,
      "type": "VEC4",
      "min": [
        0.278,
        0.333,
        0.412,
        1
      ],
      "max": [
        0.278,
        0.333,
        0.412,
        1
      ]
    },
    {
      "bufferView": 9,
      "byteOffset": 0,
      "componentType": 5126,
      "count": 1646,
      "type": "VEC4",
      "min": [
        0.278,
        0.333,
        0.412,
        1
      ],
      "max": [
        0.278,
        0.333,
        0.412,
        1
      ]
    }
  ],
  "bufferViews": [
    {
      "buffer": 0,
      "byteOffset": 0,
      "byteLength": 224212,
      "target": 34963
    },
    {
      "buffer": 0,
      "byteOffset": 224212,
      "byteLength": 84048,
      "byteStride": 24,
      "target": 34962
    },
    {
      "buffer": 0,
      "byteOffset": 308260,
      "byteLength": 357216,
      "byteStride": 24,
      "target": 34962
    },
    {
      "buffer": 0,
      "byteOffset": 665476,
      "byteLength": 39504,
      "byteStride": 24,
      "target": 34962
    },
    {
      "buffer": 0,
      "byteOffset": 704980,
      "byteLength": 28016,
      "target": 34962
    },
    {
      "buffer": 0,
      "byteOffset": 732996,
      "byteLength": 119072,
      "target": 34962
    },
    {
      "buffer": 0,
      "byteOffset": 852068,
      "byteLength": 13168,
      "target": 34962
    },
    {
      "buffer": 0,
      "byteOffset": 865236,
      "byteLength": 56032,
      "target": 34962
    },
    {
      "buffer": 0,
      "byteOffset": 921268,
      "byteLength": 238144,
      "target": 34962
    },
    {
      "buffer": 0,
      "byteOffset": 1159412,
      "byteLength": 26336,
      "target": 34962
    }
  ],
  "buffers": [
    {
      "uri": "wrist2.bin",
      "byteLength": 1185748
    }
  ],
  "materials": [
    {
      "name": "SWMaterial-0_002-material",
      "doubleSided": true,
      "pbrMetallicRoughness": {
        "baseColorFactor": [
          0.2227451,
          0.2227451,
          0.2227451,
          1
        ],
        "roughnessFactor": 0.65,
        "metallicFactor": 0.1
      }
    },
    {
      "name": "SWMaterial-1_002-material",
      "doubleSided": true,
      "pbrMetallicRoughness": {
        "baseColorFactor": [
          0.3921569,
          0.5427451,
          0.64,
          1
        ],
        "roughnessFactor": 0.65,
        "metallicFactor": 0.1
      }
    },
    {
      "name": "SWMaterial-2_002-material",
      "doubleSided": true,
      "pbrMetallicRoughness": {
        "baseColorFactor": [
          0.4643137,
          0.4643137,
          0.4643137,
          1
        ],
        "roughnessFactor": 0.65,
        "metallicFactor": 0.1
      }
    }
  ],
  "meshes": [
    {
      "name": "wrist2",
      "primitives": [
        {
          "attributes": {
            "POSITION": 3,
            "NORMAL": 4,
            "TEXCOORD_0": 9
          },
          "mode": 4,
          "material": 0,
          "indices": 0
        },
        {
          "attributes": {
            "POSITION": 5,
            "NORMAL": 6,
            "TEXCOORD_0": 10
          },
          "mode": 4,
          "material": 1,
          "indices": 1
        },
        {
          "attributes": {
            "POSITION": 7,
            "NORMAL": 8,
            "TEXCOORD_0": 11
          },
          "mode": 4,
          "material": 2,
          "indices": 2
        }
      ]
    }
  ],
  "nodes": [
    {
      "name": "wrist2",
      "mesh": 0
    }
  ],
  "scenes": [
    {
      "nodes": [
        0
      ]
    }
  ],
  "scene": 0
}
