<svg xmlns="http://www.w3.org/2000/svg" viewBox="0 0 24 24" fill="currentColor" role="img" aria-label="truST">
  <g transform="translate(1.049,11.269) scale(0.00836,-0.00836)">
    <path transform="translate(0,0)" d="M420 -18Q296 -18 229.0 49.5Q162 117 162 254V892H25V1082H176L264 1336H440V1082H645V892H440V330Q440 251 470.0 213.5Q500 176 563 176Q596 176 657 190V16Q553 -18 420 -18Z"/>
    <path transform="translate(682,0)" d="M143 0V828Q143 917 140.5 976.5Q138 1036 135 1082H403Q406 1064 411.0 972.5Q416 881 416 851H420Q461 965 493.0 1011.5Q525 1058 569.0 1080.5Q613 1103 679 1103Q733 1103 766 1088V853Q698 868 646 868Q541 868 482.5 783.0Q424 698 424 531V0Z"/>
    <path transform="translate(1479,0)" d="M408 1082V475Q408 190 600 190Q702 190 764.5 277.5Q827 365 827 502V1082H1108V242Q1108 104 1116 0H848Q836 144 836 215H831Q775 92 688.5 36.0Q602 -20 483 -20Q311 -20 219.0 85.5Q127 191 127 395V1082Z"/>
  </g>
  <g transform="translate(0.907,23.733) scale(0.00836,-0.00836)">
    <path transform="translate(0,0)" d="M1286 406Q1286 199 1132.5 89.5Q979 -20 682 -20Q411 -20 257.0 76.0Q103 172 59 367L344 414Q373 302 457.0 251.5Q541 201 690 201Q999 201 999 389Q999 449 963.5 488.0Q928 527 863.5 553.0Q799 579 616 616Q458 653 396.0 675.5Q334 698 284.0 728.5Q234 759 199.0 802.0Q164 845 144.5 903.0Q125 961 125 1036Q125 1227 268.5 1328.5Q412 1430 686 1430Q948 1430 1079.5 1348.0Q1211 1266 1249 1077L963 1038Q941 1129 873.5 1175.0Q806 1221 680 1221Q412 1221 412 1053Q412 998 440.5 963.0Q469 928 525.0 903.5Q581 879 752 842Q955 799 1042.5 762.5Q1130 726 1181.0 677.5Q1232 629 1259.0 561.5Q1286 494 1286 406Z"/>
    <path transform="translate(1366,0)" d="M773 1181V0H478V1181H23V1409H1229V1181Z"/>
  </g>
</svg>
