{
  "asset": {
    "generator": "glTF-Transform v4.3.0",
    "version": "2.0"
  },
  "accessors": [
    {
      "type": "SCALAR",
      "componentType": 5123,
      "count": 6000,
      "bufferView": 0,
      "byteOffset": 0
    },
    {
      "type": "VEC3",
      "componentType": 5126,
      "count": 5579,
      "max": [
        0.07498645037412643,
        0.03799998015165329,
        0.09200149029493332
      ],
      "min": [
        -0.07497435063123703,
        0,
        -0.07509999722242355
      ],
      "bufferView": 1,
      "byteOffset": 0
    },
    {
      "type": "VEC3",
      "componentType": 5126,
      "count": 5579,
      "bufferView": 1,
      "byteOffset": 12
    },
    {
      "bufferView": 2,
      "byteOffset": 0,
      "componentType": 5126,
      "count": 5579,
      "type": "VEC2",
      "min": [
        0,
        0
      ],
      "max": [
        0,
        0
      ]
    },
    {
      "bufferView": 3,
      "byteOffset": 0,
      "componentType": 5126,
      "count": 5579,
      "type": "VEC4",
      "min": [
        0.278,
        0.333,
        0.412,
        1
      ],
      "max": [
        0.278,
        0.333,
        0.412,
        1
      ]
    }
  ],
  "bufferViews": [
    {
      "buffer": 0,
      "byteOffset": 0,
      "byteLength": 12000,
      "target": 34963
    },
    {
      "buffer": 0,
      "byteOffset": 12000,
      "byteLength": 133896,
      "byteStride": 24,
      "target": 34962
    },
    {
      "buffer": 0,
      "byteOffset": 145896,
      "byteLength": 44632,
      "target": 34962
    },
    {
      "buffer": 0,
      "byteOffset": 190528,
      "byteLength": 89264,
      "target": 34962
    }
  ],
  "buffers": [
    {
      "uri": "base.bin",
      "byteLength": 279792
    }
  ],
  "materials": [
    {
      "name": "SWMaterial-2_001-material",
      "doubleSided": true,
      "pbrMetallicRoughness": {
        "baseColorFactor": [
          0.371451,
          0.371451,
          0.371451,
          1
        ],
        "roughnessFactor": 0.65,
        "metallicFactor": 0.1
      }
    }
  ],
  "meshes": [
    {
      "name": "base",
      "primitives": [
        {
          "attributes": {
            "POSITION": 1,
            "NORMAL": 2,
            "TEXCOORD_0": 3
          },
          "mode": 4,
          "material": 0,
          "indices": 0
        }
      ]
    }
  ],
  "nodes": [
    {
      "name": "base",
      "mesh": 0
    }
  ],
  "scenes": [
    {
      "nodes": [
        0
      ]
    }
  ],
  "scene": 0
}
