{
  "asset": {
    "generator": "glTF-Transform v4.3.0",
    "version": "2.0"
  },
  "accessors": [
    {
      "type": "SCALAR",
      "componentType": 5123,
      "count": 27000,
      "bufferView": 0,
      "byteOffset": 0
    },
    {
      "type": "SCALAR",
      "componentType": 5123,
      "count": 44994,
      "bufferView": 0,
      "byteOffset": 54000
    },
    {
      "type": "SCALAR",
      "componentType": 5123,
      "count": 4497,
      "bufferView": 0,
      "byteOffset": 143988
    },
    {
      "type": "SCALAR",
      "componentType": 5123,
      "count": 2028,
      "bufferView": 0,
      "byteOffset": 152984
    },
    {
      "type": "SCALAR",
      "componentType": 5123,
      "count": 444,
      "bufferView": 0,
      "byteOffset": 157040
    },
    {
      "type": "VEC3",
      "componentType": 5126,
      "count": 6899,
      "max": [
        0.05799996107816696,
        0.6183000802993774,
        0.061536308377981186
      ],
      "min": [
        -0.05799996107816696,
        -0.05629783123731613,
        -0.060890790075063705
      ],
      "bufferView": 1,
      "byteOffset": 0
    },
    {
      "type": "VEC3",
      "componentType": 5126,
      "count": 6899,
      "bufferView": 1,
      "byteOffset": 12
    },
    {
      "type": "VEC3",
      "componentType": 5126,
      "count": 13154,
      "max": [
        0.05999875068664551,
        0.6192001104354858,
        0.06889480352401733
      ],
      "min": [
        -0.05999987944960594,
        -0.05829982832074165,
        0.00864869263023138
      ],
      "bufferView": 2,
      "byteOffset": 0
    },
    {
      "type": "VEC3",
      "componentType": 5126,
      "count": 13154,
      "bufferView": 2,
      "byteOffset": 12
    },
    {
      "type": "VEC3",
      "componentType": 5126,
      "count": 4340,
      "max": [
        0.03875374048948288,
        0.6144599914550781,
        0.06301558017730713
      ],
      "min": [
        -0.03875052183866501,
        -0.05834989994764328,
        -0.05863087996840477
      ],
      "bufferView": 3,
      "byteOffset": 0
    },
    {
      "type": "VEC3",
      "componentType": 5126,
      "count": 4340,
      "bufferView": 3,
      "byteOffset": 12
    },
    {
      "type": "VEC3",
      "componentType": 5126,
      "count": 556,
      "max": [
        0.04500066861510277,
        0.519300103187561,
        0.04575920104980469
      ],
      "min": [
        -0.04500066861510277,
        0.08180207014083862,
        -0.04414016008377075
      ],
      "bufferView": 4,
      "byteOffset": 0
    },
    {
      "type": "VEC3",
      "componentType": 5126,
      "count": 556,
      "bufferView": 4,
      "byteOffset": 12
    },
    {
      "type": "VEC3",
      "componentType": 5126,
      "count": 250,
      "max": [
        0.058601368218660355,
        0.058972060680389404,
        -0.058890748769044876
      ],
      "min": [
        -0.05729407072067261,
        -0.05675894021987915,
        -0.06729990243911743
      ],
      "bufferView": 5,
      "byteOffset": 0
    },
    {
      "type": "VEC3",
      "componentType": 5126,
      "count": 250,
      "bufferView": 5,
      "byteOffset": 12
    },
    {
      "bufferView": 6,
      "byteOffset": 0,
      "componentType": 5126,
      "count": 6899,
      "type": "VEC2",
      "min": [
        0,
        0
      ],
      "max": [
        0,
        0
      ]
    },
    {
      "bufferView": 7,
      "byteOffset": 0,
      "componentType": 5126,
      "count": 13154,
      "type": "VEC2",
      "min": [
        0,
        0
      ],
      "max": [
        0,
        0
      ]
    },
    {
      "bufferView": 8,
      "byteOffset": 0,
      "componentType": 5126,
      "count": 4340,
      "type": "VEC2",
      "min": [
        0,
        0
      ],
      "max": [
        0,
        0
      ]
    },
    {
      "bufferView": 9,
      "byteOffset": 0,
      "componentType": 5126,
      "count": 556,
      "type": "VEC2",
      "min": [
        0,
        0
      ],
      "max": [
        0,
        0
      ]
    },
    {
      "bufferView": 10,
      "byteOffset": 0,
      "componentType": 5126,
      "count": 250,
      "type": "VEC2",
      "min": [
        0,
        0
      ],
      "max": [
        0,
        0
      ]
    },
    {
      "bufferView": 11,
      "byteOffset": 0,
      "componentType": 5126,
      "count": 6899,
      "type": "VEC4",
      "min": [
        0.937,
        0.267,
        0.267,
        1
      ],
      "max": [
        0.937,
        0.267,
        0.267,
        1
      ]
    },
    {
      "bufferView": 12,
      "byteOffset": 0,
      "componentType": 5126,
      "count": 13154,
      "type": "VEC4",
      "min": [
        0.937,
        0.267,
        0.267,
        1
      ],
      "max": [
        0.937,
        0.267,
        0.267,
        1
      ]
    },
    {
      "bufferView": 13,
      "byteOffset": 0,
      "componentType": 5126,
      "count": 4340,
      "type": "VEC4",
      "min": [
        0.937,
        0.267,
        0.267,
        1
      ],
      "max": [
        0.937,
        0.267,
        0.267,
        1
      ]
    },
    {
      "bufferView": 14,
      "byteOffset": 0,
      "componentType": 5126,
      "count": 556,
      "type": "VEC4",
      "min": [
        0.937,
        0.267,
        0.267,
        1
      ],
      "max": [
        0.937,
        0.267,
        0.267,
        1
      ]
    },
    {
      "bufferView": 15,
      "byteOffset": 0,
      "componentType": 5126,
      "count": 250,
      "type": "VEC4",
      "min": [
        0.937,
        0.267,
        0.267,
        1
      ],
      "max": [
        0.937,
        0.267,
        0.267,
        1
      ]
    }
  ],
  "bufferViews": [
    {
      "buffer": 0,
      "byteOffset": 0,
      "byteLength": 157928,
      "target": 34963
    },
    {
      "buffer": 0,
      "byteOffset": 157928,
      "byteLength": 165576,
      "byteStride": 24,
      "target": 34962
    },
    {
      "buffer": 0,
      "byteOffset": 323504,
      "byteLength": 315696,
      "byteStride": 24,
      "target": 34962
    },
    {
      "buffer": 0,
      "byteOffset": 639200,
      "byteLength": 104160,
      "byteStride": 24,
      "target": 34962
    },
    {
      "buffer": 0,
      "byteOffset": 743360,
      "byteLength": 13344,
      "byteStride": 24,
      "target": 34962
    },
    {
      "buffer": 0,
      "byteOffset": 756704,
      "byteLength": 6000,
      "byteStride": 24,
      "target": 34962
    },
    {
      "buffer": 0,
      "byteOffset": 762704,
      "byteLength": 55192,
      "target": 34962
    },
    {
      "buffer": 0,
      "byteOffset": 817896,
      "byteLength": 105232,
      "target": 34962
    },
    {
      "buffer": 0,
      "byteOffset": 923128,
      "byteLength": 34720,
      "target": 34962
    },
    {
      "buffer": 0,
      "byteOffset": 957848,
      "byteLength": 4448,
      "target": 34962
    },
    {
      "buffer": 0,
      "byteOffset": 962296,
      "byteLength": 2000,
      "target": 34962
    },
    {
      "buffer": 0,
      "byteOffset": 964296,
      "byteLength": 110384,
      "target": 34962
    },
    {
      "buffer": 0,
      "byteOffset": 1074680,
      "byteLength": 210464,
      "target": 34962
    },
    {
      "buffer": 0,
      "byteOffset": 1285144,
      "byteLength": 69440,
      "target": 34962
    },
    {
      "buffer": 0,
      "byteOffset": 1354584,
      "byteLength": 8896,
      "target": 34962
    },
    {
      "buffer": 0,
      "byteOffset": 1363480,
      "byteLength": 4000,
      "target": 34962
    }
  ],
  "buffers": [
    {
      "uri": "forearm.bin",
      "byteLength": 1367480
    }
  ],
  "materials": [
    {
      "name": "SWMaterial-0-material",
      "doubleSided": true,
      "pbrMetallicRoughness": {
        "baseColorFactor": [
          0.2227451,
          0.2227451,
          0.2227451,
          1
        ],
        "roughnessFactor": 0.65,
        "metallicFactor": 0.1
      }
    },
    {
      "name": "SWMaterial-1-material",
      "doubleSided": true,
      "pbrMetallicRoughness": {
        "baseColorFactor": [
          0.3921569,
          0.5427451,
          0.64,
          1
        ],
        "roughnessFactor": 0.65,
        "metallicFactor": 0.1
      }
    },
    {
      "name": "SWMaterial-2-material",
      "doubleSided": true,
      "pbrMetallicRoughness": {
        "baseColorFactor": [
          0.4643137,
          0.4643137,
          0.4643137,
          1
        ],
        "roughnessFactor": 0.65,
        "metallicFactor": 0.1
      }
    },
    {
      "name": "SWMaterial-3-material",
      "doubleSided": true,
      "pbrMetallicRoughness": {
        "baseColorFactor": [
          0.6563138,
          0.6563138,
          0.6563138,
          1
        ],
        "roughnessFactor": 0.65,
        "metallicFactor": 0.1
      }
    },
    {
      "name": "SWMaterial-4-material",
      "doubleSided": true,
      "pbrMetallicRoughness": {
        "baseColorFactor": [
          0.08031373,
          0.08031373,
          0.08031373,
          1
        ],
        "roughnessFactor": 0.65,
        "metallicFactor": 0.1
      }
    }
  ],
  "meshes": [
    {
      "name": "forearm",
      "primitives": [
        {
          "attributes": {
            "POSITION": 5,
            "NORMAL": 6,
            "TEXCOORD_0": 15
          },
          "mode": 4,
          "material": 0,
          "indices": 0
        },
        {
          "attributes": {
            "POSITION": 7,
            "NORMAL": 8,
            "TEXCOORD_0": 16
          },
          "mode": 4,
          "material": 1,
          "indices": 1
        },
        {
          "attributes": {
            "POSITION": 9,
            "NORMAL": 10,
            "TEXCOORD_0": 17
          },
          "mode": 4,
          "material": 2,
          "indices": 2
        },
        {
          "attributes": {
            "POSITION": 11,
            "NORMAL": 12,
            "TEXCOORD_0": 18
          },
          "mode": 4,
          "material": 3,
          "indices": 3
        },
        {
          "attributes": {
            "POSITION": 13,
            "NORMAL": 14,
            "TEXCOORD_0": 19
          },
          "mode": 4,
          "material": 4,
          "indices": 4
        }
      ]
    }
  ],
  "nodes": [
    {
      "name": "forearm",
      "mesh": 0
    }
  ],
  "scenes": [
    {
      "nodes": [
        0
      ]
    }
  ],
  "scene": 0
}
