{
  "asset": {
    "generator": "glTF-Transform v4.3.0",
    "version": "2.0"
  },
  "accessors": [
    {
      "type": "SCALAR",
      "componentType": 5123,
      "count": 18033,
      "bufferView": 0,
      "byteOffset": 0
    },
    {
      "type": "SCALAR",
      "componentType": 5123,
      "count": 23808,
      "bufferView": 0,
      "byteOffset": 36068
    },
    {
      "type": "SCALAR",
      "componentType": 5123,
      "count": 2397,
      "bufferView": 0,
      "byteOffset": 83684
    },
    {
      "type": "VEC3",
      "componentType": 5126,
      "count": 5135,
      "max": [
        0.07501000165939331,
        0.08237498253583908,
        0.07501000165939331
      ],
      "min": [
        -0.07501000165939331,
        -0.08899997919797897,
        -0.08599995821714401
      ],
      "bufferView": 1,
      "byteOffset": 0
    },
    {
      "type": "VEC3",
      "componentType": 5126,
      "count": 5135,
      "bufferView": 1,
      "byteOffset": 12
    },
    {
      "type": "VEC3",
      "componentType": 5126,
      "count": 23778,
      "max": [
        0.07517290115356445,
        0.08820097893476486,
        0.07519972324371338
      ],
      "min": [
        -0.07515078037977219,
        0.028142860159277916,
        -0.07519984245300293
      ],
      "bufferView": 2,
      "byteOffset": 0
    },
    {
      "type": "VEC3",
      "componentType": 5126,
      "count": 23778,
      "bufferView": 2,
      "byteOffset": 12
    },
    {
      "type": "VEC3",
      "componentType": 5126,
      "count": 2281,
      "max": [
        0.06873636692762375,
        0.08663201332092285,
        0.05856930837035179
      ],
      "min": [
        -0.06870371103286743,
        0.07069998234510422,
        -0.08516097068786621
      ],
      "bufferView": 3,
      "byteOffset": 0
    },
    {
      "type": "VEC3",
      "componentType": 5126,
      "count": 2281,
      "bufferView": 3,
      "byteOffset": 12
    },
    {
      "bufferView": 4,
      "byteOffset": 0,
      "componentType": 5126,
      "count": 5135,
      "type": "VEC2",
      "min": [
        0,
        0
      ],
      "max": [
        0,
        0
      ]
    },
    {
      "bufferView": 5,
      "byteOffset": 0,
      "componentType": 5126,
      "count": 23778,
      "type": "VEC2",
      "min": [
        0,
        0
      ],
      "max": [
        0,
        0
      ]
    },
    {
      "bufferView": 6,
      "byteOffset": 0,
      "componentType": 5126,
      "count": 2281,
      "type": "VEC2",
      "min": [
        0,
        0
      ],
      "max": [
        0,
        0
      ]
    },
    {
      "bufferView": 7,
      "byteOffset": 0,
      "componentType": 5126,
      "count": 5135,
      "type": "VEC4",
      "min": [
        0.278,
        0.333,
        0.412,
        1
      ],
      "max": [
        0.278,
        0.333,
        0.412,
        1
      ]
    },
    {
      "bufferView": 8,
      "byteOffset": 0,
      "componentType": 5126,
      "count": 23778,
      "type": "VEC4",
      "min": [
        0.278,
        0.333,
        0.412,
        1
      ],
      "max": [
        0.278,
        0.333,
        0.412,
        1
      ]
    },
    {
      "bufferView": 9,
      "byteOffset": 0,
      "componentType": 5126,
      "count": 2281,
      "type": "VEC4",
      "min": [
        0.278,
        0.333,
        0.412,
        1
      ],
      "max": [
        0.278,
        0.333,
        0.412,
        1
      ]
    }
  ],
  "bufferViews": [
    {
      "buffer": 0,
      "byteOffset": 0,
      "byteLength": 88480,
      "target": 34963
    },
    {
      "buffer": 0,
      "byteOffset": 88480,
      "byteLength": 123240,
      "byteStride": 24,
      "target": 34962
    },
    {
      "buffer": 0,
      "byteOffset": 211720,
      "byteLength": 570672,
      "byteStride": 24,
      "target": 34962
    },
    {
      "buffer": 0,
      "byteOffset": 782392,
      "byteLength": 54744,
      "byteStride": 24,
      "target": 34962
    },
    {
      "buffer": 0,
      "byteOffset": 837136,
      "byteLength": 41080,
      "target": 34962
    },
    {
      "buffer": 0,
      "byteOffset": 878216,
      "byteLength": 190224,
      "target": 34962
    },
    {
      "buffer": 0,
      "byteOffset": 1068440,
      "byteLength": 18248,
      "target": 34962
    },
    {
      "buffer": 0,
      "byteOffset": 1086688,
      "byteLength": 82160,
      "target": 34962
    },
    {
      "buffer": 0,
      "byteOffset": 1168848,
      "byteLength": 380448,
      "target": 34962
    },
    {
      "buffer": 0,
      "byteOffset": 1549296,
      "byteLength": 36496,
      "target": 34962
    }
  ],
  "buffers": [
    {
      "uri": "shoulder.bin",
      "byteLength": 1585792
    }
  ],
  "materials": [
    {
      "name": "SWMaterial-0-material",
      "doubleSided": true,
      "pbrMetallicRoughness": {
        "baseColorFactor": [
          0.2227451,
          0.2227451,
          0.2227451,
          1
        ],
        "roughnessFactor": 0.65,
        "metallicFactor": 0.1
      }
    },
    {
      "name": "SWMaterial-1-material",
      "doubleSided": true,
      "pbrMetallicRoughness": {
        "baseColorFactor": [
          0.3921569,
          0.5427451,
          0.64,
          1
        ],
        "roughnessFactor": 0.65,
        "metallicFactor": 0.1
      }
    },
    {
      "name": "SWMaterial-2-material",
      "doubleSided": true,
      "pbrMetallicRoughness": {
        "baseColorFactor": [
          0.4643137,
          0.4643137,
          0.4643137,
          1
        ],
        "roughnessFactor": 0.65,
        "metallicFactor": 0.1
      }
    }
  ],
  "meshes": [
    {
      "name": "shoulder",
      "primitives": [
        {
          "attributes": {
            "POSITION": 3,
            "NORMAL": 4,
            "TEXCOORD_0": 9
          },
          "mode": 4,
          "material": 0,
          "indices": 0
        },
        {
          "attributes": {
            "POSITION": 5,
            "NORMAL": 6,
            "TEXCOORD_0": 10
          },
          "mode": 4,
          "material": 1,
          "indices": 1
        },
        {
          "attributes": {
            "POSITION": 7,
            "NORMAL": 8,
            "TEXCOORD_0": 11
          },
          "mode": 4,
          "material": 2,
          "indices": 2
        }
      ]
    }
  ],
  "nodes": [
    {
      "name": "shoulder",
      "mesh": 0
    }
  ],
  "scenes": [
    {
      "nodes": [
        0
      ]
    }
  ],
  "scene": 0
}
